<svg xmlns="http://www.w3.org/2000/svg" width="830" height="287" fill="none" viewBox="0 0 830 287">
  <g clip-path="url(#a)">
    <path fill="#181818" d="M0 0h830v287H0z"/>
    <path fill="#1a1a1a" fill-rule="evenodd" d="m301.46 342.128-97.641-119.081-58.88 71.808-27.057-32.84-65.836 79.906h54.301l-.169.207z" clip-rule="evenodd"/>
    <path fill="#1a1a1a" fill-rule="evenodd" d="m181.516 334.721 97.641-119.081 58.879 71.808 27.057-32.84 65.837 79.906h-54.302l.17.207z" clip-rule="evenodd"/>
    <path fill="#1d1d1d" fill-rule="evenodd" d="m101.196 326.606 104.841-127.862 63.22 77.103 29.053-35.261L369 326.383h-58.305l.182.223z" clip-rule="evenodd"/>
    <path fill="#222" fill-rule="evenodd" d="M230.882 317.081 328.523 198l58.879 71.808 27.058-32.839 65.836 79.905h-54.302l.17.207z" clip-rule="evenodd"/>
    <path fill="#2c2c2c" fill-rule="evenodd" d="M305.389 346.544 414.069 214l65.536 79.926 30.116-36.552L583 346.313h-60.44l.189.231z" clip-rule="evenodd"/>
    <path fill="#2c2c2c" fill-rule="evenodd" d="m147 323.379 85.149-103.847 51.347 62.622 23.596-28.638 57.413 69.683h-47.354l.148.18z" clip-rule="evenodd"/>
    <path fill="#2c2c2c" fill-rule="evenodd" d="M221.44 310.809 74.825 132l-88.412 107.826-40.629-49.311-98.857 119.984h81.537l-.254.31z" clip-rule="evenodd"/>
    <path fill="#222" fill-rule="evenodd" d="m256.506 327.847-101.52-123.812-61.22 74.661-28.131-34.144-68.452 83.08h56.459l-.176.215z" clip-rule="evenodd"/>
    <path fill="#1a1a1a" fill-rule="evenodd" d="M923.963 342.129 809.197 202.162l-69.206 84.402-31.803-38.599-77.383 93.921h63.825l-.199.243z" clip-rule="evenodd"/>
    <path fill="#1a1a1a" fill-rule="evenodd" d="m782.983 333.422 114.766-139.967 69.206 84.402 31.802-38.599 77.383 93.92h-63.82l.19.244z" clip-rule="evenodd"/>
    <path fill="#1d1d1d" fill-rule="evenodd" d="m741.78 323.446 160.202-195.381 96.605 117.818 44.393-53.881L1151 323.106h-89.09l.27.34z" clip-rule="evenodd"/>
    <path fill="#2c2c2c" fill-rule="evenodd" d="M799.547 318.515 929.66 159.831l78.46 95.69 36.06-43.762 87.73 106.48h-72.36l.22.276z" clip-rule="evenodd"/>
    <path fill="#2c2c2c" fill-rule="evenodd" d="M896.936 319.505 752.113 142.882 664.781 249.39l-40.132-48.709L527 319.199h80.541l-.251.306z" clip-rule="evenodd"/>
    <path fill="#222" fill-rule="evenodd" d="M941.878 341.342 811.764 182.658l-78.461 95.69-36.056-43.762-87.731 106.48h72.361l-.226.276z" clip-rule="evenodd"/>
    <g clip-path="url(#b)">
      <path fill="#fafafa" d="m515.331 105.805 2.33 2.375-3.082 2.635a1.07 1.07 0 0 1-1.439-.06l-1.806-1.84a12.8 12.8 0 0 1-5.465 1.22 12.35 12.35 0 0 1-7.503-2.575c-2.13-1.659-3.611-3.957-4.202-6.522a11.25 11.25 0 0 1 .935-7.62c1.194-2.362 3.191-4.265 5.664-5.4a12.48 12.48 0 0 1 7.921-.818c2.665.602 5.036 2.054 6.722 4.117 1.695 2.07 2.609 4.628 2.595 7.256s-.954 5.177-2.67 7.232m-7.832-.835-3.362-3.435 3.087-2.64a1.064 1.064 0 0 1 1.427.065l3.047 3.12a7.1 7.1 0 0 0 .965-3.63c0-4-2.995-6.675-6.794-6.675s-6.798 2.665-6.798 6.675 3 6.68 6.798 6.68a9 9 0 0 0 1.63-.16m-16.758 4.72h-5.33V96.62l-5.854 9.29a.5.5 0 0 1-.194.182.54.54 0 0 1-.263.063.54.54 0 0 1-.263-.064.5.5 0 0 1-.194-.181l-5.895-9.29v12.08a.98.98 0 0 1-.305.703 1.07 1.07 0 0 1-.733.297h-4.308V87.215h5.331l6.331 10 6.332-10h5.329zm-28.309-22.475v22.475h-4.001l-8.974-12.19v11.185c0 .197-.06.39-.174.555a1.05 1.05 0 0 1-.864.445h-4.292v-22.47h3.996l8.528 11.56a.26.26 0 0 0 .129.094c.053.017.11.017.163.001a.26.26 0 0 0 .132-.092.24.24 0 0 0 .048-.148V87.215zm-23.007 22.475V87.215h-5.336v22.475zm-30.402-22.475h5.829l5.162 16.535 5.192-16.535h5.806L423.647 109a1 1 0 0 1-.376.497 1.1 1.1 0 0 1-.61.193h-6.041zm-5.144 18.94h-8.677l-.924 2.845a1 1 0 0 1-.377.504 1.1 1.1 0 0 1-.614.196h-5.07l7.929-22.475h6.8l7.929 22.465h-5.813zm-1.603-4.815-2.73-8.25-2.627 7.91a.24.24 0 0 0 .039.223.27.27 0 0 0 .211.102zm-17.007 3.405v4.945h-13.66V87.215h5.33v17.53z"/>
      <mask id="c" width="42" height="40" x="314" y="77" maskUnits="userSpaceOnUse" style="mask-type:luminance">
        <path fill="#fff" d="M314 77h41.519v40H314z"/>
      </mask>
      <g mask="url(#c)">
        <path fill="#fafafa" fill-rule="evenodd" d="m351.363 97.58-1.64-1.644-9.177-8.76a.27.27 0 0 0-.183-.073.27.27 0 0 0-.183.072l-9.111 8.697a.25.25 0 0 0-.063.263l.314.861-1.039-1.038-3.661-3.494a.26.26 0 0 0-.183-.073.27.27 0 0 0-.183.073l-7.226 6.9a.11.11 0 0 1-.106.023.1.1 0 0 1-.071-.08 15 15 0 0 1-.18-2.307c0-8.546 7.217-15.5 16.089-15.5 8.412 0 15.335 6.254 16.028 14.189.022.255.078.726.166.968.163.447.416.93.409.923m-15.789 15.612-1.4-.63c-.285-.093-1.099-.152-1.397-.188-5.254-.625-9.73-3.694-12.159-7.992a.195.195 0 0 1 .038-.238l5.61-5.355a.105.105 0 0 1 .157.015.1.1 0 0 1 .016.055v5.571c0 .066.027.13.076.177l7.601 7.257zM355.519 97c0-11.515-10.1-20.757-22.232-19.951-10.238.68-18.53 8.67-19.236 18.533-.837 11.687 8.756 21.418 20.709 21.418h16.933a.27.27 0 0 0 .146-.043.26.26 0 0 0 .096-.113.25.25 0 0 0 .014-.146.26.26 0 0 0-.073-.128l-14.947-14.27h-.003l-2.831-2.7a.194.194 0 0 1 0-.281l6.094-5.818a.1.1 0 0 1 .052-.026.1.1 0 0 1 .105.041.1.1 0 0 1 .017.054v5.613q0 .061.046.106l14.666 14a.26.26 0 0 0 .133.067.27.27 0 0 0 .267-.106.24.24 0 0 0 .044-.138V97.417l-.012.01c.004-.143.012-.284.012-.427" clip-rule="evenodd"/>
      </g>
    </g>
    <path fill="#54be7e" d="M664.116 161.576c-4.16 0-7.04-2.176-7.296-5.6l3.68-.128c.16 1.792 1.632 2.944 3.616 2.944 1.632 0 2.976-.736 2.976-2.048 0-1.056-.832-1.6-2.496-1.888l-2.528-.448c-3.328-.512-4.896-2.336-4.896-4.768 0-3.264 2.752-5.312 6.592-5.312s6.624 2.208 6.816 5.568l-3.584.16c-.096-1.728-1.44-2.944-3.296-2.944-1.504 0-2.72.8-2.72 2.112 0 .96.736 1.536 1.92 1.76l2.496.448c3.552.544 5.568 2.208 5.568 4.896 0 3.2-2.88 5.248-6.848 5.248m-23.906-.575v-22.4h3.904v12.992l6.88-6.688h4.704l-6.304 6.016 6.4 10.08h-4.416l-4.672-7.488-2.592 2.496v4.992zm-12.237.352c-3.04 0-5.216-1.728-5.216-4.512 0-3.008 2.592-4.704 7.36-5.248l2.976-.32v-.48c0-1.952-1.088-3.168-2.944-3.168-1.696 0-2.912 1.056-3.072 2.944l-3.84-.096c.192-3.552 3.072-6.048 7.04-6.048s6.752 2.624 6.752 6.464v5.344c0 1.728.16 3.584.384 4.768h-3.872c-.16-.704-.256-1.44-.256-2.72-.864 1.856-2.912 3.072-5.312 3.072m-1.248-4.864c0 1.408 1.088 2.112 2.496 2.112 2.208 0 3.936-1.696 3.936-4.128v-.8l-2.752.32c-2.336.288-3.68.928-3.68 2.496m-13.958 5.087c-4.832 0-8.288-3.616-8.288-8.64 0-4.992 3.456-8.608 8.224-8.608 5.568 0 8.544 4.8 7.84 9.824h-12.064c.128 2.496 1.887 4.32 4.319 4.32 1.92 0 3.521-1.088 4.065-2.72l3.392.512c-.64 2.976-3.584 5.312-7.488 5.312m-4.257-10.4h8.193c0-2.144-1.632-3.872-4-3.872-2.208 0-3.905 1.568-4.193 3.872m-22.8 15.905v-22.176h3.968v2.208c1.216-1.664 3.008-2.592 5.248-2.592 4.32 0 7.392 3.488 7.392 8.448 0 4.928-3.072 8.416-7.392 8.416-2.24 0-4.032-.928-5.248-2.592v8.288zm3.744-14.112c0 3.04 1.824 5.152 4.416 5.152 2.56 0 4.448-2.176 4.448-5.152 0-3.008-1.888-5.184-4.448-5.184-2.592 0-4.416 2.112-4.416 5.184M567.429 161v-16.096h3.968l-.096 4.416c.704-3.744 3.36-4.992 6.08-4.448v3.936c-3.104-.448-5.984.96-5.984 5.344V161zm-11.097.481c-4.896 0-8.416-3.552-8.416-8.544 0-4.96 3.52-8.512 8.416-8.512 4.864 0 8.384 3.552 8.384 8.512 0 4.992-3.52 8.544-8.384 8.544m-4.416-8.544c0 3.04 1.792 5.184 4.416 5.184 2.592 0 4.384-2.144 4.384-5.184 0-3.008-1.792-5.152-4.384-5.152-2.624 0-4.416 2.144-4.416 5.152m-12.97-9.248c0-4.48 3.744-6.016 7.2-5.376v3.168c-1.536-.48-3.232-.128-3.232 2.208v1.216h3.52v3.296h-3.52v12.8h-3.968v-12.8h-2.912v-3.296h2.912zm-11.077 17.184c-3.52.992-7.392 0-7.392-5.248v-7.424h-2.912v-3.296h2.912v-4.064h3.968v4.064h3.872v3.296h-3.872v7.104c0 2.56 1.696 2.752 3.392 2.24zm-10.436-.064c-3.52.896-6.976.096-6.976-4.832v-17.376h3.968v16.576c0 2.176 1.088 2.784 2.976 2.272zm-14.067.191v-16.096h3.968V161zm-.576-20.96c0-1.44 1.12-2.56 2.56-2.56 1.472 0 2.592 1.12 2.592 2.56 0 1.472-1.12 2.592-2.592 2.592-1.44 0-2.56-1.12-2.56-2.592m-13.24 14.176c0 2.496 1.152 3.968 3.136 3.968 2.016 0 3.232-1.408 3.456-3.872v-9.408h3.968V161h-3.968l.064-2.464c-.896 1.792-2.592 2.848-4.896 2.848-3.424 0-5.728-2.528-5.728-6.368v-10.112h3.968zm-23.184 6.785v-22.4h3.968v8.512c1.216-1.664 3.008-2.592 5.248-2.592 4.32 0 7.392 3.488 7.392 8.448 0 4.928-3.072 8.416-7.392 8.416-2.24 0-4.032-.928-5.248-2.592v2.208zm3.744-8.032c0 3.04 1.824 5.152 4.416 5.152 2.56 0 4.448-2.176 4.448-5.152 0-3.008-1.888-5.184-4.448-5.184-2.592 0-4.416 2.112-4.416 5.184M448.085 161v-16.096h3.968l-.096 4.416c.704-3.744 3.36-4.992 6.08-4.448v3.936c-3.104-.448-5.984.96-5.984 5.344V161zm-10.6.576c-4.832 0-8.288-3.616-8.288-8.64 0-4.992 3.456-8.608 8.224-8.608 5.568 0 8.544 4.8 7.84 9.824h-12.064c.128 2.496 1.888 4.32 4.32 4.32 1.92 0 3.52-1.088 4.064-2.72l3.392.512c-.64 2.976-3.584 5.312-7.488 5.312m-4.256-10.4h8.192c0-2.144-1.632-3.872-4-3.872-2.208 0-3.904 1.568-4.192 3.872m-20.019 9.825v-22.4h3.904v12.992l6.88-6.688h4.704l-6.304 6.016 6.4 10.08h-4.416l-4.672-7.488-2.592 2.496v4.992zm-11.097.48c-4.896 0-8.416-3.552-8.416-8.544 0-4.96 3.52-8.512 8.416-8.512 4.864 0 8.384 3.552 8.384 8.512 0 4.992-3.52 8.544-8.384 8.544m-4.416-8.544c0 3.04 1.792 5.184 4.416 5.184 2.592 0 4.384-2.144 4.384-5.184 0-3.008-1.792-5.152-4.384-5.152-2.624 0-4.416 2.144-4.416 5.152M382.491 161v-16.096h3.968l-.096 4.416c.704-3.744 3.36-4.992 6.08-4.448v3.936c-3.104-.448-5.984.96-5.984 5.344V161zm-19.312.001v-22.4h3.968v8.512c1.216-1.664 3.008-2.592 5.248-2.592 4.32 0 7.392 3.488 7.392 8.448 0 4.928-3.072 8.416-7.392 8.416-2.24 0-4.032-.928-5.248-2.592v2.208zm3.744-8.032c0 3.04 1.824 5.152 4.416 5.152 2.56 0 4.448-2.176 4.448-5.152 0-3.008-1.888-5.184-4.448-5.184-2.592 0-4.416 2.112-4.416 5.184m-20.438 8.607c-4.832 0-8.288-3.616-8.288-8.64 0-4.992 3.456-8.608 8.224-8.608 5.568 0 8.544 4.8 7.84 9.824h-12.064c.128 2.496 1.888 4.32 4.32 4.32 1.92 0 3.52-1.088 4.064-2.72l3.392.512c-.64 2.976-3.584 5.312-7.488 5.312m-4.256-10.4h8.192c0-2.144-1.632-3.872-4-3.872-2.208 0-3.904 1.568-4.192 3.872m-14.892 16.385c-4.672 0-7.936-2.56-8.192-6.336l3.904-.128c.256 1.952 1.92 3.264 4.288 3.264 2.528 0 4.16-1.632 4.16-4.288v-2.624c-.896 1.696-2.848 2.88-5.12 2.88-4.288 0-7.68-3.36-7.68-7.968 0-4.448 3.264-7.936 7.68-7.936 2.336 0 4.384 1.152 5.344 2.976v-2.496h3.744v14.496c0 5.12-3.104 8.16-8.128 8.16m-4.672-15.2c0 2.624 2.016 4.704 4.544 4.704 2.592 0 4.544-1.984 4.544-4.704 0-2.624-1.888-4.672-4.544-4.672-2.528 0-4.544 2.048-4.544 4.672m-15.723 8.992c-3.04 0-5.216-1.728-5.216-4.512 0-3.008 2.592-4.704 7.36-5.248l2.976-.32v-.48c0-1.952-1.088-3.168-2.944-3.168-1.696 0-2.912 1.056-3.072 2.944l-3.84-.096c.192-3.552 3.072-6.048 7.04-6.048s6.752 2.624 6.752 6.464v5.344c0 1.728.16 3.584.384 4.768h-3.872c-.16-.704-.256-1.44-.256-2.72-.864 1.856-2.912 3.072-5.312 3.072m-1.248-4.864c0 1.408 1.088 2.112 2.496 2.112 2.208 0 3.936-1.696 3.936-4.128v-.8l-2.752.32c-2.336.288-3.68.928-3.68 2.496m-13.047 5.087c-4.16 0-7.04-2.176-7.296-5.6l3.68-.128c.16 1.792 1.632 2.944 3.616 2.944 1.632 0 2.976-.736 2.976-2.048 0-1.056-.832-1.6-2.496-1.888l-2.528-.448c-3.328-.512-4.896-2.336-4.896-4.768 0-3.264 2.752-5.312 6.592-5.312s6.624 2.208 6.816 5.568l-3.584.16c-.096-1.728-1.44-2.944-3.296-2.944-1.504 0-2.72.8-2.72 2.112 0 .96.736 1.536 1.92 1.76l2.496.448c3.552.544 5.568 2.208 5.568 4.896 0 3.2-2.88 5.248-6.848 5.248m-16.281 0c-4.16 0-7.04-2.176-7.296-5.6l3.68-.128c.16 1.792 1.632 2.944 3.616 2.944 1.632 0 2.976-.736 2.976-2.048 0-1.056-.832-1.6-2.496-1.888l-2.528-.448c-3.328-.512-4.896-2.336-4.896-4.768 0-3.264 2.752-5.312 6.592-5.312s6.624 2.208 6.816 5.568l-3.584.16c-.096-1.728-1.44-2.944-3.296-2.944-1.504 0-2.72.8-2.72 2.112 0 .96.736 1.536 1.92 1.76l2.496.448c3.552.544 5.568 2.208 5.568 4.896 0 3.2-2.88 5.248-6.848 5.248m-17.287 0c-4.832 0-8.288-3.616-8.288-8.64 0-4.992 3.456-8.608 8.224-8.608 5.568 0 8.544 4.8 7.84 9.824h-12.064c.128 2.496 1.888 4.32 4.32 4.32 1.92 0 3.52-1.088 4.064-2.72l3.392.512c-.64 2.976-3.584 5.312-7.488 5.312m-4.256-10.4h8.192c0-2.144-1.632-3.872-4-3.872-2.208 0-3.904 1.568-4.192 3.872m-31.926 9.825v-16.096h3.968l-.096 3.424c.704-2.368 2.496-3.808 5.088-3.808 2.56 0 4.512 1.408 5.344 3.776.736-2.368 2.592-3.776 5.248-3.776 3.424 0 5.728 2.528 5.728 6.368v10.112h-3.968v-9.312c0-2.496-1.152-3.968-3.136-3.968-2.176 0-3.424 1.696-3.424 4.672v8.608h-3.968v-9.312c0-2.496-1.184-3.968-3.264-3.968-2.272 0-3.552 1.696-3.552 4.672v8.608zm-16.693.575c-4.832 0-8.288-3.616-8.288-8.64 0-4.992 3.456-8.608 8.224-8.608 5.568 0 8.544 4.8 7.84 9.824h-12.064c.128 2.496 1.888 4.32 4.32 4.32 1.92 0 3.52-1.088 4.064-2.72l3.392.512c-.64 2.976-3.584 5.312-7.488 5.312m-4.256-10.4h8.192c0-2.144-1.632-3.872-4-3.872-2.208 0-3.904 1.568-4.192 3.872m-21.457 9.825v-22.4h3.968v9.408c.768-2.176 2.528-3.488 4.992-3.488 3.488 0 5.824 2.592 5.824 6.56v9.92h-3.968v-9.312c0-2.496-1.184-3.968-3.296-3.968-2.272 0-3.552 1.696-3.552 4.672v8.608zm-13.539 0v-18.88h-6.848v-3.52h17.888v3.52h-6.848v18.88z"/>
  </g>
  <defs>
    <clipPath id="a">
      <path fill="#fff" d="M0 0h830v287H0z"/>
    </clipPath>
    <clipPath id="b">
      <path fill="#fff" d="M314 77h204v40H314z"/>
    </clipPath>
  </defs>
</svg>
