<svg xmlns="http://www.w3.org/2000/svg" width="830" height="287" fill="none" viewBox="0 0 830 287"><g clip-path="url(#a)"><path fill="#181818" d="M0 0h830v287H0z"/><path fill="#1a1a1a" fill-rule="evenodd" d="m301.46 342.13-97.64-119.08-58.88 71.8-27.06-32.84-65.83 79.91h54.3l-.17.2z" clip-rule="evenodd"/><path fill="#1a1a1a" fill-rule="evenodd" d="m181.52 334.72 97.64-119.08 58.88 71.8 27.05-32.83 65.84 79.9h-54.3l.17.21z" clip-rule="evenodd"/><path fill="#1d1d1d" fill-rule="evenodd" d="m101.2 326.6 104.84-127.86 63.22 77.1 29.05-35.25 70.69 85.8h-58.3l.18.22z" clip-rule="evenodd"/><path fill="#222" fill-rule="evenodd" d="M230.88 317.08 328.52 198l58.88 71.8 27.06-32.83 65.84 79.9H426l.16.21z" clip-rule="evenodd"/><path fill="#2c2c2c" fill-rule="evenodd" d="M305.39 346.54 414.07 214l65.54 79.93 30.11-36.56L583 346.31h-60.44l.19.23z" clip-rule="evenodd"/><path fill="#2c2c2c" fill-rule="evenodd" d="m147 323.38 85.15-103.85 51.35 62.62 23.6-28.63 57.4 69.68h-47.35l.15.18z" clip-rule="evenodd"/><path fill="#2c2c2c" fill-rule="evenodd" d="M221.44 310.8 74.82 132l-88.4 107.83-40.64-49.32-98.85 119.99h81.53l-.25.3z" clip-rule="evenodd"/><path fill="#222" fill-rule="evenodd" d="M256.5 327.85 155 204.03 93.77 278.7l-28.14-34.15-68.45 83.08h56.46l-.17.22z" clip-rule="evenodd"/><path fill="#1a1a1a" fill-rule="evenodd" d="M923.96 342.13 809.2 202.16l-69.2 84.4-31.81-38.6-77.39 93.93h63.83l-.2.24z" clip-rule="evenodd"/><path fill="#1a1a1a" fill-rule="evenodd" d="m782.98 333.42 114.77-139.96 69.2 84.4 31.8-38.6 77.39 93.92h-63.82l.19.24z" clip-rule="evenodd"/><path fill="#1d1d1d" fill-rule="evenodd" d="m741.78 323.45 160.2-195.38 96.6 117.81 44.4-53.88L1151 323.1h-89.09l.27.35z" clip-rule="evenodd"/><path fill="#2c2c2c" fill-rule="evenodd" d="m799.55 318.52 130.11-158.69 78.46 95.7 36.06-43.77 87.73 106.48h-72.36l.22.27z" clip-rule="evenodd"/><path fill="#2c2c2c" fill-rule="evenodd" d="M896.94 319.5 752.1 142.89 664.78 249.4l-40.13-48.7L527 319.18h80.54l-.25.31z" clip-rule="evenodd"/><path fill="#222" fill-rule="evenodd" d="M941.88 341.34 811.76 182.66l-78.46 95.69-36.05-43.76-87.73 106.48h72.36l-.23.27z" clip-rule="evenodd"/><g clip-path="url(#b)"><path fill="#fafafa" d="m515.33 105.8 2.33 2.38-3.08 2.63a1.07 1.07 0 0 1-1.44-.06l-1.8-1.83c-1.7.8-3.57 1.22-5.47 1.22a12.4 12.4 0 0 1-7.5-2.58 11.6 11.6 0 0 1-4.2-6.52c-.6-2.57-.27-5.26.93-7.62s3.19-4.27 5.66-5.4a12.5 12.5 0 0 1 7.92-.82c2.67.6 5.04 2.05 6.73 4.12s2.6 4.62 2.6 7.25a11.4 11.4 0 0 1-2.68 7.24m-7.83-.83-3.36-3.44 3.08-2.64a1.06 1.06 0 0 1 1.43.07l3.05 3.12c.64-1.11.97-2.36.96-3.63 0-4-3-6.68-6.8-6.68s-6.79 2.67-6.79 6.68 3 6.68 6.8 6.68q.83 0 1.63-.16m-16.76 4.72h-5.33V96.62l-5.85 9.29-.2.18-.26.06-.26-.06-.2-.18-5.9-9.29v12.08q0 .41-.3.7-.3.3-.73.3h-4.3V87.21h5.32l6.33 10 6.34-10h5.33zm-28.31-22.49v22.48h-4l-8.97-12.19v11.19q0 .3-.18.55a1 1 0 0 1-.86.45h-4.3V87.2h4l8.53 11.56q.05.07.13.1t.16 0 .13-.1q.06-.06.05-.14V87.21zm-23 22.48V87.21h-5.34v22.48zm-30.4-22.48h5.82l5.16 16.54 5.2-16.54h5.8L423.65 109q-.1.3-.38.5-.28.18-.6.19h-6.05zm-5.15 18.95h-8.68l-.92 2.84a1 1 0 0 1-.38.5q-.28.2-.61.2h-5.07l7.93-22.48h6.8l7.93 22.47h-5.82zm-1.6-4.82-2.73-8.25-2.63 7.91a.2.2 0 0 0 .04.22q.03.05.1.08.05.03.1.03zm-17.01 3.4v4.95H371.6V87.21h5.33v17.54z"/><mask id="c" width="42" height="40" x="314" y="77" maskUnits="userSpaceOnUse" style="mask-type:luminance"><path fill="#fff" d="M314 77h41.52v40H314z"/></mask><g mask="url(#c)"><path fill="#fafafa" fill-rule="evenodd" d="m351.36 97.58-1.64-1.64-9.17-8.76a.3.3 0 0 0-.19-.08.3.3 0 0 0-.18.08l-9.11 8.7-.07.11q-.02.08 0 .14l.32.87-1.04-1.04-3.66-3.5a.3.3 0 0 0-.18-.07.3.3 0 0 0-.19.07l-7.22 6.9a.1.1 0 0 1-.1.03.1.1 0 0 1-.08-.08q-.18-1.15-.18-2.31c0-8.55 7.22-15.5 16.09-15.5 8.41 0 15.34 6.25 16.03 14.19.02.25.08.73.16.97.17.44.42.93.41.92m-15.79 15.61-1.4-.63c-.28-.1-1.1-.15-1.4-.19a16.1 16.1 0 0 1-12.15-7.99.2.2 0 0 1 .04-.24l5.6-5.35.06-.03a.1.1 0 0 1 .1.04l.02.06v5.57q0 .1.07.18l7.6 7.25zM355.52 97c0-11.51-10.1-20.76-22.23-19.95-10.24.68-18.53 8.67-19.24 18.53-.84 11.69 8.76 21.42 20.71 21.42h16.93q.08 0 .15-.04a.3.3 0 0 0 .1-.12q.02-.07 0-.14l-.06-.13-14.95-14.27-2.83-2.7a.2.2 0 0 1 0-.28l6.09-5.82.05-.03.06.01.05.04.01.05v5.61q0 .07.05.1l14.66 14q.06.06.14.08a.3.3 0 0 0 .27-.11.2.2 0 0 0 .04-.14v-15.7l-.01.02z" clip-rule="evenodd"/></g></g><path fill="#54be7e" d="M664.12 161.58c-4.16 0-7.04-2.18-7.3-5.6l3.68-.13c.16 1.79 1.63 2.94 3.62 2.94 1.63 0 2.97-.73 2.97-2.05 0-1.05-.83-1.6-2.5-1.88l-2.52-.45c-3.33-.51-4.9-2.34-4.9-4.77 0-3.26 2.75-5.31 6.6-5.31 3.83 0 6.62 2.2 6.81 5.57l-3.58.16c-.1-1.73-1.44-2.95-3.3-2.95-1.5 0-2.72.8-2.72 2.11 0 .96.74 1.54 1.92 1.76l2.5.45c3.55.55 5.56 2.21 5.56 4.9 0 3.2-2.88 5.25-6.84 5.25m-23.91-.58v-22.4h3.9v13l6.88-6.7h4.7l-6.3 6.02 6.4 10.08h-4.41l-4.67-7.49-2.6 2.5v5zm-12.24.35c-3.04 0-5.21-1.72-5.21-4.5 0-3.02 2.59-4.71 7.36-5.26l2.97-.32v-.48c0-1.95-1.09-3.16-2.94-3.16-1.7 0-2.91 1.05-3.07 2.94l-3.84-.1c.19-3.55 3.07-6.04 7.04-6.04s6.75 2.62 6.75 6.46v5.34c0 1.73.16 3.59.38 4.77h-3.87c-.16-.7-.25-1.44-.25-2.72-.87 1.86-2.92 3.07-5.32 3.07m-1.25-4.86c0 1.4 1.1 2.11 2.5 2.11 2.2 0 3.94-1.7 3.94-4.13v-.8l-2.75.32c-2.34.3-3.68.93-3.68 2.5m-13.96 5.09c-4.84 0-8.3-3.62-8.3-8.64 0-5 3.46-8.61 8.23-8.61 5.57 0 8.55 4.8 7.84 9.82h-12.06c.13 2.5 1.89 4.32 4.32 4.32a4.15 4.15 0 0 0 4.06-2.72l3.4.51c-.64 2.98-3.59 5.32-7.5 5.32m-4.26-10.4h8.2a3.84 3.84 0 0 0-4-3.88c-2.22 0-3.91 1.57-4.2 3.88m-22.79 15.9V144.9h3.97v2.21a6.2 6.2 0 0 1 5.25-2.59c4.32 0 7.39 3.49 7.39 8.45 0 4.93-3.07 8.41-7.4 8.41a6.2 6.2 0 0 1-5.24-2.59v8.3zm3.74-14.11c0 3.04 1.83 5.15 4.42 5.15 2.56 0 4.45-2.18 4.45-5.15 0-3-1.89-5.19-4.45-5.19-2.6 0-4.42 2.12-4.42 5.19M567.43 161v-16.1h3.97l-.1 4.42c.7-3.74 3.36-5 6.08-4.45v3.94c-3.1-.45-5.98.96-5.98 5.34V161zm-11.1.48c-4.9 0-8.41-3.55-8.41-8.54 0-4.96 3.52-8.51 8.41-8.51 4.87 0 8.39 3.55 8.39 8.5 0 5-3.52 8.55-8.39 8.55m-4.41-8.54c0 3.04 1.79 5.18 4.41 5.18 2.6 0 4.39-2.14 4.39-5.18 0-3.01-1.8-5.16-4.39-5.16-2.62 0-4.41 2.15-4.41 5.16m-12.97-9.25c0-4.48 3.74-6.02 7.2-5.38v3.17c-1.54-.48-3.24-.13-3.24 2.2v1.22h3.52v3.3h-3.52V161h-3.96v-12.8h-2.92v-3.3h2.92zm-11.08 17.18c-3.52 1-7.4 0-7.4-5.25v-7.42h-2.9v-3.3h2.9v-4.06h3.98v4.06h3.87v3.3h-3.87v7.1c0 2.56 1.7 2.76 3.39 2.24zm-10.44-.07c-3.52.9-6.97.1-6.97-4.82V138.6h3.96v16.58c0 2.17 1.1 2.78 2.98 2.27zm-14.06.2v-16.1h3.96V161zm-.58-20.96a2.53 2.53 0 0 1 2.56-2.56c1.47 0 2.6 1.12 2.6 2.56 0 1.47-1.13 2.6-2.6 2.6a2.53 2.53 0 0 1-2.56-2.6m-13.24 14.18c0 2.5 1.15 3.96 3.14 3.96 2.01 0 3.23-1.4 3.45-3.87v-9.4h3.97V161h-3.97l.07-2.46c-.9 1.79-2.6 2.84-4.9 2.84-3.42 0-5.73-2.52-5.73-6.36V144.9h3.97zM466.37 161v-22.4h3.96v8.51a6.3 6.3 0 0 1 5.25-2.59c4.32 0 7.4 3.49 7.4 8.45 0 4.93-3.08 8.41-7.4 8.41a6.2 6.2 0 0 1-5.25-2.59V161zm3.74-8.03c0 3.04 1.82 5.15 4.42 5.15 2.56 0 4.44-2.18 4.44-5.15 0-3-1.88-5.19-4.44-5.19-2.6 0-4.42 2.12-4.42 5.19M448.09 161v-16.1h3.96l-.1 4.42c.71-3.74 3.37-5 6.09-4.45v3.94c-3.1-.45-5.99.96-5.99 5.34V161zm-10.6.58c-4.84 0-8.3-3.62-8.3-8.64 0-5 3.46-8.61 8.23-8.61 5.57 0 8.54 4.8 7.84 9.82H433.2c.13 2.5 1.88 4.32 4.32 4.32a4.15 4.15 0 0 0 4.06-2.72l3.4.51c-.65 2.98-3.6 5.32-7.5 5.32m-4.26-10.4h8.2a3.84 3.84 0 0 0-4-3.88c-2.22 0-3.91 1.57-4.2 3.88M413.21 161v-22.4h3.9v13l6.88-6.7h4.7l-6.3 6.02 6.4 10.08h-4.41l-4.67-7.49-2.6 2.5v5zm-11.1.48c-4.9 0-8.41-3.55-8.41-8.54 0-4.96 3.52-8.51 8.41-8.51 4.87 0 8.39 3.55 8.39 8.5 0 5-3.52 8.55-8.39 8.55m-4.41-8.54c0 3.04 1.79 5.18 4.41 5.18 2.6 0 4.39-2.14 4.39-5.18 0-3.01-1.8-5.16-4.39-5.16-2.62 0-4.41 2.15-4.41 5.16M382.5 161v-16.1h3.96l-.1 4.42c.7-3.74 3.36-5 6.08-4.45v3.94c-3.1-.45-5.98.96-5.98 5.34V161zm-19.32 0v-22.4h3.97v8.51a6.2 6.2 0 0 1 5.25-2.59c4.31 0 7.39 3.49 7.39 8.45 0 4.93-3.08 8.41-7.4 8.41a6.2 6.2 0 0 1-5.24-2.59V161zm3.74-8.03c0 3.04 1.83 5.15 4.42 5.15 2.56 0 4.45-2.18 4.45-5.15 0-3-1.9-5.19-4.45-5.19-2.6 0-4.42 2.12-4.42 5.19m-20.43 8.61c-4.84 0-8.3-3.62-8.3-8.64 0-5 3.46-8.61 8.23-8.61 5.57 0 8.54 4.8 7.84 9.82H342.2c.13 2.5 1.88 4.32 4.32 4.32a4.15 4.15 0 0 0 4.06-2.72l3.4.51c-.65 2.98-3.6 5.32-7.5 5.32m-4.26-10.4h8.2a3.84 3.84 0 0 0-4-3.88c-2.22 0-3.91 1.57-4.2 3.88m-14.88 16.38c-4.67 0-7.94-2.56-8.2-6.34l3.9-.12c.26 1.95 1.93 3.26 4.3 3.26 2.53 0 4.16-1.63 4.16-4.29v-2.62a5.7 5.7 0 0 1-5.12 2.88c-4.3 0-7.68-3.36-7.68-7.97 0-4.45 3.26-7.94 7.68-7.94a5.9 5.9 0 0 1 5.34 2.98v-2.5h3.74v14.5c0 5.12-3.1 8.16-8.12 8.16m-4.67-15.2a4.6 4.6 0 0 0 4.54 4.7c2.6 0 4.54-1.98 4.54-4.7a4.5 4.5 0 0 0-4.54-4.67 4.57 4.57 0 0 0-4.54 4.67m-15.73 8.99c-3.04 0-5.21-1.72-5.21-4.5 0-3.02 2.59-4.71 7.36-5.26l2.97-.32v-.48c0-1.95-1.09-3.16-2.94-3.16-1.7 0-2.91 1.05-3.07 2.94l-3.84-.1c.19-3.55 3.07-6.04 7.04-6.04 3.96 0 6.75 2.62 6.75 6.46v5.34c0 1.73.16 3.59.38 4.77h-3.87c-.16-.7-.26-1.44-.26-2.72-.86 1.86-2.9 3.07-5.3 3.07m-1.25-4.86c0 1.4 1.1 2.11 2.5 2.11 2.2 0 3.94-1.7 3.94-4.13v-.8l-2.76.32c-2.33.3-3.68.93-3.68 2.5m-13.05 5.09c-4.16 0-7.04-2.18-7.3-5.6l3.68-.13c.16 1.79 1.63 2.94 3.62 2.94 1.63 0 2.97-.73 2.97-2.05 0-1.05-.83-1.6-2.5-1.88l-2.52-.45c-3.33-.51-4.9-2.34-4.9-4.77 0-3.26 2.75-5.31 6.6-5.31 3.83 0 6.62 2.2 6.81 5.57l-3.58.16c-.1-1.73-1.44-2.95-3.3-2.95-1.5 0-2.72.8-2.72 2.11 0 .96.74 1.54 1.92 1.76l2.5.45c3.55.55 5.56 2.21 5.56 4.9 0 3.2-2.87 5.25-6.84 5.25m-16.28 0c-4.16 0-7.04-2.18-7.3-5.6l3.68-.13c.16 1.79 1.63 2.94 3.62 2.94 1.63 0 2.97-.73 2.97-2.05 0-1.05-.83-1.6-2.5-1.88l-2.52-.45c-3.33-.51-4.9-2.34-4.9-4.77 0-3.26 2.75-5.31 6.6-5.31 3.83 0 6.62 2.2 6.81 5.57l-3.58.16c-.1-1.73-1.44-2.95-3.3-2.95-1.5 0-2.72.8-2.72 2.11 0 .96.74 1.54 1.92 1.76l2.5.45c3.55.55 5.56 2.21 5.56 4.9 0 3.2-2.88 5.25-6.84 5.25m-17.29 0c-4.83 0-8.29-3.62-8.29-8.64 0-5 3.46-8.61 8.22-8.61 5.57 0 8.55 4.8 7.85 9.82h-12.07c.13 2.5 1.89 4.32 4.32 4.32a4.15 4.15 0 0 0 4.06-2.72l3.4.51c-.64 2.98-3.59 5.32-7.5 5.32m-4.26-10.4h8.2a3.84 3.84 0 0 0-4-3.88c-2.21 0-3.9 1.57-4.2 3.88M222.9 161v-16.1h3.97l-.1 3.43a5 5 0 0 1 5.09-3.8c2.56 0 4.5 1.4 5.34 3.77a5.15 5.15 0 0 1 5.25-3.78c3.42 0 5.73 2.53 5.73 6.37V161h-3.97v-9.31c0-2.5-1.15-3.97-3.14-3.97-2.17 0-3.42 1.7-3.42 4.67V161h-3.97v-9.31c0-2.5-1.18-3.97-3.26-3.97-2.27 0-3.55 1.7-3.55 4.67V161zm-16.7.58c-4.83 0-8.28-3.62-8.28-8.64 0-5 3.45-8.61 8.22-8.61 5.57 0 8.54 4.8 7.84 9.82h-12.06c.12 2.5 1.88 4.32 4.32 4.32a4.15 4.15 0 0 0 4.06-2.72l3.4.51c-.65 2.98-3.6 5.32-7.5 5.32m-4.25-10.4h8.19a3.84 3.84 0 0 0-4-3.88c-2.2 0-3.9 1.57-4.2 3.88M180.5 161v-22.4h3.96v9.4a5 5 0 0 1 5-3.48c3.48 0 5.81 2.6 5.81 6.56V161h-3.96v-9.31c0-2.5-1.19-3.97-3.3-3.97-2.27 0-3.55 1.7-3.55 4.67V161zm-13.55 0v-18.88h-6.85v-3.52H178v3.52h-6.86V161z"/></g><defs><clipPath id="a"><path fill="#fff" d="M0 0h830v287H0z"/></clipPath><clipPath id="b"><path fill="#fff" d="M314 77h204v40H314z"/></clipPath></defs></svg>