<svg width="830" height="287" viewBox="0 0 830 287" fill="none" xmlns="http://www.w3.org/2000/svg">
<g clip-path="url(#clip0_3744_2524)">
<rect width="830" height="287" fill="#181818"/>
<path fill-rule="evenodd" clip-rule="evenodd" d="M301.46 342.128L203.819 223.047L144.939 294.855L117.882 262.015L52.0459 341.921H106.347L106.178 342.128H301.46Z" fill="#1A1A1A"/>
<path fill-rule="evenodd" clip-rule="evenodd" d="M181.516 334.721L279.157 215.64L338.036 287.448L365.093 254.608L430.93 334.514H376.628L376.798 334.721H181.516Z" fill="#1A1A1A"/>
<path fill-rule="evenodd" clip-rule="evenodd" d="M101.196 326.606L206.037 198.744L269.257 275.847L298.31 240.586L369 326.383H310.695L310.877 326.606H101.196Z" fill="#1D1D1D"/>
<path fill-rule="evenodd" clip-rule="evenodd" d="M230.882 317.081L328.523 198L387.402 269.808L414.46 236.969L480.296 316.874H425.994L426.164 317.081H230.882Z" fill="#222222"/>
<path fill-rule="evenodd" clip-rule="evenodd" d="M305.389 346.544L414.069 214L479.605 293.926L509.721 257.374L583 346.313H522.56L522.749 346.544H305.389Z" fill="#2C2C2C"/>
<path fill-rule="evenodd" clip-rule="evenodd" d="M147 323.379L232.149 219.532L283.496 282.154L307.092 253.516L364.505 323.199H317.151L317.299 323.379H147Z" fill="#2C2C2C"/>
<path fill-rule="evenodd" clip-rule="evenodd" d="M221.44 310.809L74.8247 132L-13.5873 239.826L-54.2156 190.515L-153.073 310.499H-71.536L-71.7902 310.809H221.44Z" fill="#2C2C2C"/>
<path fill-rule="evenodd" clip-rule="evenodd" d="M256.506 327.847L154.986 204.035L93.7669 278.696L65.6346 244.552L-2.81689 327.632H53.6419L53.4657 327.847H256.506Z" fill="#222222"/>
<path fill-rule="evenodd" clip-rule="evenodd" d="M923.963 342.129L809.197 202.162L739.991 286.564L708.188 247.965L630.805 341.886H694.63L694.431 342.129H923.963Z" fill="#1A1A1A"/>
<path fill-rule="evenodd" clip-rule="evenodd" d="M782.983 333.422L897.749 193.455L966.955 277.857L998.757 239.258L1076.14 333.178H1012.32L1012.51 333.422H782.983Z" fill="#1A1A1A"/>
<path fill-rule="evenodd" clip-rule="evenodd" d="M741.78 323.446L901.982 128.065L998.587 245.883L1042.98 192.002L1151 323.106H1061.91L1062.18 323.446H741.78Z" fill="#1D1D1D"/>
<path fill-rule="evenodd" clip-rule="evenodd" d="M799.547 318.515L929.66 159.831L1008.12 255.521L1044.18 211.759L1131.91 318.239H1059.55L1059.77 318.515H799.547Z" fill="#2C2C2C"/>
<path fill-rule="evenodd" clip-rule="evenodd" d="M896.936 319.505L752.113 142.882L664.781 249.39L624.649 200.681L527 319.199H607.541L607.29 319.505H896.936Z" fill="#2C2C2C"/>
<path fill-rule="evenodd" clip-rule="evenodd" d="M941.878 341.342L811.764 182.658L733.303 278.348L697.247 234.586L609.516 341.066H681.877L681.651 341.342H941.878Z" fill="#222222"/>
<g clip-path="url(#clip1_3744_2524)">
<path d="M515.331 105.805L517.661 108.18L514.579 110.815C514.378 110.985 514.115 111.074 513.847 111.063C513.578 111.052 513.325 110.941 513.14 110.755L511.334 108.915C509.635 109.718 507.765 110.136 505.869 110.135C503.134 110.119 500.487 109.21 498.366 107.56C496.236 105.901 494.755 103.603 494.164 101.038C493.572 98.4696 493.901 95.785 495.099 93.4171C496.293 91.0563 498.29 89.1529 500.763 88.0183C503.228 86.8893 506.023 86.6004 508.684 87.1996C511.349 87.802 513.72 89.2542 515.406 91.3171C517.101 93.3879 518.015 95.9445 518.001 98.5734C517.987 101.202 517.047 103.75 515.331 105.805ZM507.499 104.97L504.137 101.535L507.224 98.8946C507.425 98.7277 507.685 98.6413 507.951 98.6534C508.217 98.6655 508.468 98.7752 508.651 98.9596L511.698 102.08C512.341 100.969 512.674 99.7188 512.663 98.4496C512.663 94.4496 509.668 91.7746 505.869 91.7746C502.071 91.7746 499.071 94.4396 499.071 98.4496C499.071 102.46 502.071 105.13 505.869 105.13C506.417 105.125 506.962 105.072 507.499 104.97ZM490.741 109.69H485.411V96.6196L479.557 105.91C479.511 105.986 479.444 106.048 479.363 106.092C479.283 106.135 479.192 106.156 479.1 106.155C479.008 106.156 478.917 106.134 478.837 106.091C478.756 106.048 478.69 105.985 478.643 105.91L472.748 96.6196V108.7C472.747 108.963 472.638 109.216 472.443 109.403C472.249 109.59 471.986 109.697 471.71 109.7H467.402V87.2146H472.733L479.064 97.2146L485.396 87.2146H490.725L490.741 109.69Z" fill="#FAFAFA"/>
<path d="M462.432 87.2148V109.69H458.431L449.457 97.4998V108.685C449.457 108.882 449.397 109.075 449.283 109.24C449.169 109.404 449.006 109.533 448.816 109.61C448.69 109.66 448.555 109.685 448.419 109.685H444.127V87.2148H448.123L456.651 98.7748C456.682 98.8186 456.728 98.8515 456.78 98.8687C456.833 98.8858 456.89 98.8863 456.943 98.87C456.996 98.8538 457.042 98.8216 457.075 98.7784C457.107 98.7351 457.124 98.683 457.123 98.6298V87.2148H462.432ZM439.425 109.69V87.2148H434.089V109.69H439.425ZM409.023 87.2148H414.852L420.014 103.75L425.206 87.2148H431.012L423.647 109C423.579 109.199 423.447 109.373 423.271 109.497C423.094 109.621 422.88 109.688 422.661 109.69H416.62L409.023 87.2148ZM403.879 106.155H395.202L394.278 109C394.211 109.202 394.08 109.378 393.901 109.504C393.723 109.63 393.508 109.698 393.287 109.7H388.217L396.146 87.2248H402.946L410.875 109.69H405.062L403.879 106.155ZM402.276 101.34L399.546 93.0898L396.919 101C396.907 101.037 396.904 101.077 396.911 101.116C396.917 101.155 396.934 101.191 396.958 101.223C396.982 101.255 397.014 101.28 397.051 101.298C397.087 101.316 397.128 101.325 397.169 101.325L402.276 101.34ZM385.269 104.745V109.69H371.609V87.2148H376.939V104.745H385.269Z" fill="#FAFAFA"/>
<mask id="mask0_3744_2524" style="mask-type:luminance" maskUnits="userSpaceOnUse" x="314" y="77" width="42" height="40">
<path d="M314 77H355.519V117H314V77Z" fill="white"/>
</mask>
<g mask="url(#mask0_3744_2524)">
<path fill-rule="evenodd" clip-rule="evenodd" d="M351.363 97.5803L349.723 95.9365L340.546 87.1753C340.497 87.1292 340.432 87.1033 340.363 87.1033C340.294 87.1033 340.229 87.1292 340.18 87.1753L331.069 95.8715C331.034 95.9052 331.009 95.9477 330.998 95.9942C330.987 96.0406 330.99 96.0891 331.006 96.134L331.32 96.9965L330.281 95.9578L326.62 92.464C326.596 92.4409 326.568 92.4225 326.537 92.41C326.505 92.3975 326.471 92.391 326.437 92.391C326.403 92.391 326.37 92.3975 326.338 92.41C326.307 92.4225 326.278 92.4409 326.254 92.464L319.028 99.364C319.014 99.3769 318.997 99.3859 318.978 99.39C318.96 99.3941 318.94 99.3932 318.922 99.3874C318.904 99.3816 318.887 99.3711 318.875 99.357C318.862 99.343 318.854 99.3259 318.851 99.3078C318.732 98.5439 318.671 97.7727 318.671 97.0003C318.671 88.454 325.888 81.5003 334.76 81.5003C343.172 81.5003 350.095 87.754 350.788 95.689C350.81 95.944 350.866 96.4153 350.954 96.6565C351.117 97.104 351.37 97.5865 351.363 97.5803ZM335.574 113.192L334.174 112.562C333.889 112.469 333.075 112.41 332.777 112.374C327.523 111.749 323.047 108.68 320.618 104.382C320.597 104.343 320.589 104.3 320.596 104.257C320.603 104.214 320.624 104.174 320.656 104.144L326.266 98.789C326.28 98.7752 326.298 98.7658 326.318 98.762C326.338 98.7582 326.359 98.7602 326.377 98.7677C326.396 98.7753 326.412 98.7881 326.423 98.8043C326.434 98.8206 326.439 98.8397 326.439 98.859V104.43C326.439 104.496 326.466 104.56 326.515 104.607L334.116 111.864L335.574 113.192ZM355.519 97.0003C355.519 85.4853 345.419 76.2428 333.287 77.049C323.049 77.729 314.757 85.719 314.051 95.5815C313.214 107.269 322.807 117 334.76 117H351.693C351.745 117 351.796 116.985 351.839 116.957C351.882 116.929 351.915 116.89 351.935 116.844C351.954 116.798 351.959 116.747 351.949 116.698C351.938 116.65 351.913 116.605 351.876 116.57L336.929 102.3H336.926L334.095 99.6003C334.056 99.5628 334.035 99.5123 334.035 99.4597C334.035 99.407 334.056 99.3565 334.095 99.319L340.189 93.5015C340.203 93.488 340.221 93.4787 340.241 93.475C340.261 93.4713 340.281 93.4732 340.3 93.4806C340.319 93.4879 340.334 93.5004 340.346 93.5163C340.357 93.5323 340.363 93.5511 340.363 93.5703V99.1828C340.363 99.2228 340.379 99.2603 340.409 99.289L355.075 113.289C355.111 113.323 355.158 113.347 355.208 113.356C355.259 113.365 355.311 113.36 355.358 113.341C355.406 113.322 355.446 113.29 355.475 113.25C355.504 113.209 355.519 113.161 355.519 113.112V97.4165L355.507 97.4265C355.511 97.284 355.519 97.1428 355.519 97.0003Z" fill="#FAFAFA"/>
</g>
</g>
<path d="M664.116 161.576C659.956 161.576 657.076 159.4 656.82 155.976L660.5 155.848C660.66 157.64 662.132 158.792 664.116 158.792C665.748 158.792 667.092 158.056 667.092 156.744C667.092 155.688 666.26 155.144 664.596 154.856L662.068 154.408C658.74 153.896 657.172 152.072 657.172 149.64C657.172 146.376 659.924 144.328 663.764 144.328C667.604 144.328 670.388 146.536 670.58 149.896L666.996 150.056C666.9 148.328 665.556 147.112 663.7 147.112C662.196 147.112 660.98 147.912 660.98 149.224C660.98 150.184 661.716 150.76 662.9 150.984L665.396 151.432C668.948 151.976 670.964 153.64 670.964 156.328C670.964 159.528 668.084 161.576 664.116 161.576Z" fill="#54BE7E"/>
<path d="M640.21 161.001V138.601H644.114V151.593L650.994 144.905H655.698L649.394 150.921L655.794 161.001H651.378L646.706 153.513L644.114 156.009V161.001H640.21Z" fill="#54BE7E"/>
<path d="M627.973 161.353C624.933 161.353 622.757 159.625 622.757 156.841C622.757 153.833 625.349 152.137 630.117 151.593L633.093 151.273V150.793C633.093 148.841 632.005 147.625 630.149 147.625C628.453 147.625 627.237 148.681 627.077 150.569L623.237 150.473C623.429 146.921 626.309 144.425 630.277 144.425C634.245 144.425 637.029 147.049 637.029 150.889V156.233C637.029 157.961 637.189 159.817 637.413 161.001H633.541C633.381 160.297 633.285 159.561 633.285 158.281C632.421 160.137 630.373 161.353 627.973 161.353ZM626.725 156.489C626.725 157.897 627.813 158.601 629.221 158.601C631.429 158.601 633.157 156.905 633.157 154.473V153.673L630.405 153.993C628.069 154.281 626.725 154.921 626.725 156.489Z" fill="#54BE7E"/>
<path d="M612.767 161.576C607.935 161.576 604.479 157.96 604.479 152.936C604.479 147.944 607.935 144.328 612.703 144.328C618.271 144.328 621.247 149.128 620.543 154.152H608.479C608.607 156.648 610.366 158.472 612.798 158.472C614.718 158.472 616.319 157.384 616.863 155.752L620.255 156.264C619.615 159.24 616.671 161.576 612.767 161.576ZM608.51 151.176H616.703C616.703 149.032 615.071 147.304 612.703 147.304C610.495 147.304 608.798 148.872 608.51 151.176Z" fill="#54BE7E"/>
<path d="M585.71 167.081V144.905H589.678V147.113C590.894 145.449 592.686 144.521 594.926 144.521C599.246 144.521 602.318 148.009 602.318 152.969C602.318 157.897 599.246 161.385 594.926 161.385C592.686 161.385 590.894 160.457 589.678 158.793V167.081H585.71ZM589.454 152.969C589.454 156.009 591.278 158.121 593.87 158.121C596.43 158.121 598.318 155.945 598.318 152.969C598.318 149.961 596.43 147.785 593.87 147.785C591.278 147.785 589.454 149.897 589.454 152.969Z" fill="#54BE7E"/>
<path d="M567.429 161V144.904H571.397L571.301 149.32C572.005 145.576 574.661 144.328 577.381 144.872V148.808C574.277 148.36 571.397 149.768 571.397 154.152V161H567.429Z" fill="#54BE7E"/>
<path d="M556.332 161.481C551.436 161.481 547.916 157.929 547.916 152.937C547.916 147.977 551.436 144.425 556.332 144.425C561.196 144.425 564.716 147.977 564.716 152.937C564.716 157.929 561.196 161.481 556.332 161.481ZM551.916 152.937C551.916 155.977 553.708 158.121 556.332 158.121C558.924 158.121 560.716 155.977 560.716 152.937C560.716 149.929 558.924 147.785 556.332 147.785C553.708 147.785 551.916 149.929 551.916 152.937Z" fill="#54BE7E"/>
<path d="M538.946 143.689C538.946 139.209 542.69 137.673 546.146 138.313V141.481C544.61 141.001 542.914 141.353 542.914 143.689V144.905H546.434V148.201H542.914V161.001H538.946V148.201H536.034V144.905H538.946V143.689Z" fill="#54BE7E"/>
<path d="M527.869 160.873C524.349 161.865 520.477 160.873 520.477 155.625V148.201H517.565V144.905H520.477V140.841H524.445V144.905H528.317V148.201H524.445V155.305C524.445 157.865 526.141 158.057 527.837 157.545L527.869 160.873Z" fill="#54BE7E"/>
<path d="M517.433 160.809C513.913 161.705 510.457 160.905 510.457 155.977V138.601H514.425V155.177C514.425 157.353 515.513 157.961 517.401 157.449L517.433 160.809Z" fill="#54BE7E"/>
<path d="M503.366 161V144.904H507.334V161H503.366ZM502.79 140.04C502.79 138.6 503.91 137.48 505.35 137.48C506.822 137.48 507.942 138.6 507.942 140.04C507.942 141.512 506.822 142.632 505.35 142.632C503.91 142.632 502.79 141.512 502.79 140.04Z" fill="#54BE7E"/>
<path d="M489.55 154.216C489.55 156.712 490.702 158.184 492.686 158.184C494.702 158.184 495.918 156.776 496.142 154.312V144.904H500.11V155.336V161H496.142L496.206 158.536C495.31 160.328 493.614 161.384 491.31 161.384C487.886 161.384 485.582 158.856 485.582 155.016V144.904H489.55V154.216Z" fill="#54BE7E"/>
<path d="M466.366 161.001V138.601H470.334V147.113C471.55 145.449 473.342 144.521 475.582 144.521C479.902 144.521 482.974 148.009 482.974 152.969C482.974 157.897 479.902 161.385 475.582 161.385C473.342 161.385 471.55 160.457 470.334 158.793V161.001H466.366ZM470.11 152.969C470.11 156.009 471.934 158.121 474.526 158.121C477.086 158.121 478.974 155.945 478.974 152.969C478.974 149.961 477.086 147.785 474.526 147.785C471.934 147.785 470.11 149.897 470.11 152.969Z" fill="#54BE7E"/>
<path d="M448.085 161V144.904H452.053L451.957 149.32C452.661 145.576 455.317 144.328 458.037 144.872V148.808C454.933 148.36 452.053 149.768 452.053 154.152V161H448.085Z" fill="#54BE7E"/>
<path d="M437.485 161.576C432.653 161.576 429.197 157.96 429.197 152.936C429.197 147.944 432.653 144.328 437.421 144.328C442.989 144.328 445.965 149.128 445.261 154.152H433.197C433.325 156.648 435.085 158.472 437.517 158.472C439.437 158.472 441.037 157.384 441.581 155.752L444.973 156.264C444.333 159.24 441.389 161.576 437.485 161.576ZM433.229 151.176H441.421C441.421 149.032 439.789 147.304 437.421 147.304C435.213 147.304 433.517 148.872 433.229 151.176Z" fill="#54BE7E"/>
<path d="M413.21 161.001V138.601H417.114V151.593L423.994 144.905H428.698L422.394 150.921L428.794 161.001H424.378L419.706 153.513L417.114 156.009V161.001H413.21Z" fill="#54BE7E"/>
<path d="M402.113 161.481C397.217 161.481 393.697 157.929 393.697 152.937C393.697 147.977 397.217 144.425 402.113 144.425C406.977 144.425 410.497 147.977 410.497 152.937C410.497 157.929 406.977 161.481 402.113 161.481ZM397.697 152.937C397.697 155.977 399.489 158.121 402.113 158.121C404.705 158.121 406.497 155.977 406.497 152.937C406.497 149.929 404.705 147.785 402.113 147.785C399.489 147.785 397.697 149.929 397.697 152.937Z" fill="#54BE7E"/>
<path d="M382.491 161V144.904H386.459L386.363 149.32C387.067 145.576 389.723 144.328 392.443 144.872V148.808C389.339 148.36 386.459 149.768 386.459 154.152V161H382.491Z" fill="#54BE7E"/>
<path d="M363.179 161.001V138.601H367.147V147.113C368.363 145.449 370.155 144.521 372.395 144.521C376.715 144.521 379.787 148.009 379.787 152.969C379.787 157.897 376.715 161.385 372.395 161.385C370.155 161.385 368.363 160.457 367.147 158.793V161.001H363.179ZM366.923 152.969C366.923 156.009 368.747 158.121 371.339 158.121C373.899 158.121 375.787 155.945 375.787 152.969C375.787 149.961 373.899 147.785 371.339 147.785C368.747 147.785 366.923 149.897 366.923 152.969Z" fill="#54BE7E"/>
<path d="M346.485 161.576C341.653 161.576 338.197 157.96 338.197 152.936C338.197 147.944 341.653 144.328 346.421 144.328C351.989 144.328 354.965 149.128 354.261 154.152H342.197C342.325 156.648 344.085 158.472 346.517 158.472C348.437 158.472 350.037 157.384 350.581 155.752L353.973 156.264C353.333 159.24 350.389 161.576 346.485 161.576ZM342.229 151.176H350.421C350.421 149.032 348.789 147.304 346.421 147.304C344.213 147.304 342.517 148.872 342.229 151.176Z" fill="#54BE7E"/>
<path d="M327.337 167.561C322.665 167.561 319.401 165.001 319.145 161.225L323.049 161.097C323.305 163.049 324.969 164.361 327.337 164.361C329.865 164.361 331.497 162.729 331.497 160.073V157.449C330.601 159.145 328.649 160.329 326.377 160.329C322.089 160.329 318.697 156.969 318.697 152.361C318.697 147.913 321.961 144.425 326.377 144.425C328.713 144.425 330.761 145.577 331.721 147.401V144.905H335.465V159.401C335.465 164.521 332.361 167.561 327.337 167.561ZM322.665 152.361C322.665 154.985 324.681 157.065 327.209 157.065C329.801 157.065 331.753 155.081 331.753 152.361C331.753 149.737 329.865 147.689 327.209 147.689C324.681 147.689 322.665 149.737 322.665 152.361Z" fill="#54BE7E"/>
<path d="M306.942 161.353C303.902 161.353 301.726 159.625 301.726 156.841C301.726 153.833 304.318 152.137 309.086 151.593L312.062 151.273V150.793C312.062 148.841 310.974 147.625 309.118 147.625C307.422 147.625 306.206 148.681 306.046 150.569L302.206 150.473C302.398 146.921 305.278 144.425 309.246 144.425C313.214 144.425 315.998 147.049 315.998 150.889V156.233C315.998 157.961 316.158 159.817 316.382 161.001H312.51C312.35 160.297 312.254 159.561 312.254 158.281C311.39 160.137 309.342 161.353 306.942 161.353ZM305.694 156.489C305.694 157.897 306.782 158.601 308.19 158.601C310.398 158.601 312.126 156.905 312.126 154.473V153.673L309.374 153.993C307.038 154.281 305.694 154.921 305.694 156.489Z" fill="#54BE7E"/>
<path d="M292.647 161.576C288.487 161.576 285.607 159.4 285.351 155.976L289.031 155.848C289.191 157.64 290.663 158.792 292.647 158.792C294.279 158.792 295.623 158.056 295.623 156.744C295.623 155.688 294.791 155.144 293.127 154.856L290.599 154.408C287.271 153.896 285.703 152.072 285.703 149.64C285.703 146.376 288.455 144.328 292.295 144.328C296.135 144.328 298.919 146.536 299.111 149.896L295.527 150.056C295.431 148.328 294.087 147.112 292.231 147.112C290.727 147.112 289.511 147.912 289.511 149.224C289.511 150.184 290.247 150.76 291.431 150.984L293.927 151.432C297.479 151.976 299.495 153.64 299.495 156.328C299.495 159.528 296.615 161.576 292.647 161.576Z" fill="#54BE7E"/>
<path d="M276.366 161.576C272.206 161.576 269.326 159.4 269.07 155.976L272.75 155.848C272.91 157.64 274.382 158.792 276.366 158.792C277.998 158.792 279.342 158.056 279.342 156.744C279.342 155.688 278.51 155.144 276.846 154.856L274.318 154.408C270.99 153.896 269.422 152.072 269.422 149.64C269.422 146.376 272.174 144.328 276.014 144.328C279.854 144.328 282.638 146.536 282.83 149.896L279.246 150.056C279.15 148.328 277.806 147.112 275.95 147.112C274.446 147.112 273.23 147.912 273.23 149.224C273.23 150.184 273.966 150.76 275.15 150.984L277.646 151.432C281.198 151.976 283.214 153.64 283.214 156.328C283.214 159.528 280.334 161.576 276.366 161.576Z" fill="#54BE7E"/>
<path d="M259.079 161.576C254.247 161.576 250.791 157.96 250.791 152.936C250.791 147.944 254.247 144.328 259.015 144.328C264.583 144.328 267.559 149.128 266.855 154.152H254.791C254.919 156.648 256.679 158.472 259.111 158.472C261.031 158.472 262.631 157.384 263.175 155.752L266.567 156.264C265.927 159.24 262.983 161.576 259.079 161.576ZM254.823 151.176H263.015C263.015 149.032 261.383 147.304 259.015 147.304C256.807 147.304 255.111 148.872 254.823 151.176Z" fill="#54BE7E"/>
<path d="M222.897 161.001V144.905H226.865L226.769 148.329C227.473 145.961 229.265 144.521 231.857 144.521C234.417 144.521 236.369 145.929 237.201 148.297C237.937 145.929 239.793 144.521 242.449 144.521C245.873 144.521 248.177 147.049 248.177 150.889V161.001H244.209V151.689C244.209 149.193 243.057 147.721 241.073 147.721C238.897 147.721 237.649 149.417 237.649 152.393V161.001H233.681V151.689C233.681 149.193 232.497 147.721 230.417 147.721C228.145 147.721 226.865 149.417 226.865 152.393V161.001H222.897Z" fill="#54BE7E"/>
<path d="M206.204 161.576C201.372 161.576 197.916 157.96 197.916 152.936C197.916 147.944 201.372 144.328 206.14 144.328C211.708 144.328 214.684 149.128 213.98 154.152H201.916C202.044 156.648 203.804 158.472 206.236 158.472C208.156 158.472 209.756 157.384 210.3 155.752L213.692 156.264C213.052 159.24 210.108 161.576 206.204 161.576ZM201.948 151.176H210.14C210.14 149.032 208.508 147.304 206.14 147.304C203.932 147.304 202.236 148.872 201.948 151.176Z" fill="#54BE7E"/>
<path d="M180.491 161.001V138.601H184.459V148.009C185.227 145.833 186.987 144.521 189.451 144.521C192.939 144.521 195.275 147.113 195.275 151.081V161.001H191.307V151.689C191.307 149.193 190.123 147.721 188.011 147.721C185.739 147.721 184.459 149.417 184.459 152.393V161.001H180.491Z" fill="#54BE7E"/>
<path d="M166.952 161.001V142.121H160.104V138.601H177.992V142.121H171.144V161.001H166.952Z" fill="#54BE7E"/>
</g>
<defs>
<clipPath id="clip0_3744_2524">
<rect width="830" height="287" fill="white"/>
</clipPath>
<clipPath id="clip1_3744_2524">
<rect width="204" height="40" fill="white" transform="translate(314 77)"/>
</clipPath>
</defs>
</svg>
