<svg xmlns="http://www.w3.org/2000/svg" xmlns:xlink="http://www.w3.org/1999/xlink" viewBox="0 0 154 56">
  <defs>
    <path id="a" d="M23 55C10.297 55 0 44.703 0 32S10.297 9 23 9s23 10.297 23 23-10.297 23-23 23m-1-18.192a5.4 5.4 0 0 0-.214-1.51 5.7 5.7 0 0 0-.613-1.385 6 6 0 0 0-.97-1.191q-.57-.54-1.269-.928.443-.39.791-.873c.348-.483.43-.667.592-1.032q.243-.547.378-1.122.136-.575.136-1.143 0-1.164-.535-2.182c-.535-1.018-.846-1.274-1.469-1.787q-.934-.768-2.175-1.212C15.412 22 14.942 22 14 22q-1.398 0-2.638.443c-1.24.443-1.55.7-2.168 1.212q-.927.77-1.461 1.787c-.534 1.017-.535 1.406-.535 2.182q0 .569.128 1.143.129.575.378 1.115c.249.54.366.702.599 1.025q.35.485.791.859-.713.387-1.283.935-.57.547-.977 1.198c-.407.651-.478.898-.62 1.392S6 36.291 6 36.808q0 1.344.627 2.48a6.2 6.2 0 0 0 1.719 1.96q1.091.825 2.545 1.288 1.455.465 3.109.464c1.654 0 2.139-.155 3.109-.464s1.818-.739 2.545-1.288a6.2 6.2 0 0 0 1.719-1.96 5.04 5.04 0 0 0 .627-2.48m-5-8.79q0 .42-.197.78c-.197.36-.31.45-.535.625q-.337.265-.795.42a3 3 0 0 1-.967.157q-.52 0-.98-.156a2.7 2.7 0 0 1-.794-.42q-.337-.265-.535-.625c-.198-.36-.197-.5-.197-.781s.066-.543.197-.787q.198-.366.535-.642.337-.277.795-.433t.98-.156q.508 0 .966.156t.795.433.535.642q.197.366.197.787m0 9.049q0 .642-.273 1.179a2.9 2.9 0 0 1-.75.924q-.476.389-1.118.609-.641.22-1.365.221c-.724.001-.936-.074-1.36-.221a3.6 3.6 0 0 1-1.111-.61 2.9 2.9 0 0 1-.75-.923Q10 37.71 10 37.066c0-.643.091-.827.273-1.198q.273-.555.75-.97.476-.416 1.111-.657c.635-.241.877-.241 1.36-.241s.938.08 1.365.241q.642.241 1.118.656t.75.971.273 1.199m23 1.93v-3.989h-1.995v-10h-4.003v10h-5.51L30.235 23h-4.003L24 38.997h10.002V43h4.004v-4.003z"/>
  </defs>
  <g fill="#7a7c7c" fill-rule="evenodd">
    <use xlink:href="#a"/>
    <path d="M90.726 37.677q-1.514.255-3.151.323-.951 4.2-3.75 6.725c-2.8 2.525-3.984 2.525-6.35 2.525q-3 0-5.125-1.45a9.1 9.1 0 0 1-2.458-2.473c-1.124 1.034-2.359 1.885-3.642 2.348-2.094.755-4.292 1.575-6.325 1.575q-4.9 0-7.625-2.775t-2.725-7.325q0-4.05 1.6-7.1c1.6-3.05 2.45-3.6 4.15-4.7s3.483-1.65 5.35-1.65q2.75 0 4.275 1.625t1.525 4.175q0 2.1-.925 3.55t-2.425 1.45q-.95 0-1.525-.45-.576-.45-.575-1.25 0-.35.1-.8c.1-.45.116-.517.15-.65q.25-.75.25-1.4c0-.65-.109-.767-.325-1q-.325-.35-.925-.35-1.15 0-2.15 1.025t-1.6 2.775c-.6 1.75-.6 2.45-.6 3.85q0 5.8 5.05 5.8 2.049 0 4.425-1.375 1.388-.804 2.75-2.077-.125-.901-.125-1.848 0-3.8 1.45-6.775t4-4.65 5.65-1.675q3.8 0 6.125 2.625t2.725 6.475q1.818-.117 4.174-.651.109-.24.226-.474 1.7-3.425 4.675-5.6t6.675-2.575q.95-9.7 3.625-16.575T114.375 0q2.15 0 3.575 1.95c1.425 1.95 1.425 3.266 1.425 5.9q0 5.6-2.75 13.1t-7.35 15.4q.2 2.9.875 4.15c.675 1.25 1.025 1.25 1.725 1.25q1.35 0 2.75-1.2.777-.666 1.847-1.826a15 15 0 0 1-.147-2.124q0-3.45 1.45-6.425 1.45-2.976 4.025-4.725c2.575-1.75 3.658-1.75 5.825-1.75q2.9 0 4.65 1.725t1.75 4.675q0 3.45-2.475 5.925c-2.475 2.475-4.442 2.958-8.375 3.925q1.25 2.3 4.75 2.3 2.25 0 5.125-1.575a17 17 0 0 0 3.278-2.338q1.872-2.397 2.947-4.087.9-1.45 1.825-3.45c.925-2 1.425-3.15 2.425-5.45q.95-2.2 3.95-2.2 1.4 0 1.95.25t.55.8q0 .3-.2.95c-.2.65-.317.866-.55 1.3q-.9 1.8-.9 3.05 0 .75.525 1.65c.525.9.891 1.35 1.625 2.25q1.6 2.1 2.425 3.575.825 1.474.825 3.225 0 2.1-.975 3.975c-.975 1.875-1.559 2.258-2.725 3.025q-1.75 1.15-4 1.15-2.601 0-3.975-1.2c-1.374-1.2-1.375-1.7-1.375-2.7q0-1.3.95-2.25c.95-.95 1.566-.95 2.8-.95q.65 0 1.525.125c.875.125 1.025.141 1.325.175q-.05-1.3-.575-2.45c-.525-1.15-.792-1.509-1.325-2.225s-1.034-1.342-1.5-1.875q-1.551 2.95-3.075 4.9-.278.355-.565.704a3.4 3.4 0 0 1-.41.596 14 14 0 0 1-1.512 1.559q-.412.426-.838.84-.658.658-1.369.835-.711.468-1.506.916a14.5 14.5 0 0 1-7.225 1.9q-5.25 0-8.15-2.85a9 9 0 0 1-.962-1.11 23 23 0 0 1-2.588 2.185q-2.45 1.775-4.85 1.775-3.8 0-5.8-4.45-2.1 2.65-3.675 3.55c-1.575.9-2.275.9-3.675.9q-3.05 0-5.025-2.275t-1.975-5.925q0-.695.051-1.373M77.875 41.95q1.6 0 2.775-1.3t1.575-3.75a6.9 6.9 0 0 1-2.375-2.75 8.14 8.14 0 0 1-.825-3.6q0-.8.15-1.6h-.25q-2 0-3.325 1.925c-1.325 1.925-1.325 3.091-1.325 5.425q0 2.75 1.075 4.2c1.075 1.45 1.558 1.45 2.525 1.45m21.55.25q.95 0 1.9-.775t2.4-2.875q-.5-2.7-.5-6.05 0-1.2.1-3.9-2.75.849-4.575 3.675c-1.825 2.826-1.825 3.975-1.825 6.275q0 3.65 2.5 3.65m14.4-37.3q-.95 0-1.9 3.375T110.3 17.1c-.675 5.45-.775 7.433-.975 11.4q5.6-12.2 5.6-19.6 0-1.9-.325-2.95c-.325-1.05-.475-1.05-.775-1.05m12.95 23.7q-1.85 0-3.125 2.15c-1.275 2.15-1.275 3.166-1.275 5.2v.1q2.95-.7 4.65-2.1c1.7-1.4 1.7-2.017 1.7-3.25q0-.95-.525-1.525t-1.425-.575"/>
  </g>
</svg>
