<svg fill="none" version="1.1" viewBox="0 0 394 80" xmlns="http://www.w3.org/2000/svg">
  <g clip-path="url(#k)">
    <path d="m383.93 57.61 4.49 4.75-5.94 5.27c-.388.3418-.893.5203-1.409.4979-.517-.0224-1.004-.2438-1.361-.6179l-3.48-3.68c-3.277 1.6078-6.88 2.4425-10.53 2.44-5.264-.0299-10.362-1.8461-14.459-5.1512s-6.951-7.9033-8.094-13.042-.508-10.513 1.802-15.243c2.309-4.7304 6.156-8.5365 10.911-10.795 4.755-2.2587 10.136-2.8363 15.262-1.6381 5.126 1.1981 9.693 4.1011 12.954 8.2335s5.022 9.2496 4.996 14.514c-.027 5.264-1.84 10.363-5.142 14.462zm-15.09-1.67-6.48-6.87 5.95-5.28c.388-.3346.889-.5077 1.401-.4835s.994.2438 1.349.6135l5.87 6.24c1.239-2.2178 1.88-4.7197 1.86-7.26 0-8-5.77-13.35-13.09-13.35s-13.1 5.33-13.1 13.35 5.78 13.36 13.1 13.36c1.054-.0091 2.106-.1162 3.14-.32z" fill="#47B16F"/>
    <path d="m336.55 65.38h-10.27v-26.14l-11.28 18.58c-.09.1522-.219.2778-.374.3639-.154.0861-.329.1296-.506.1261-.177.0035-.352-.04-.506-.1261-.155-.0861-.284-.2117-.374-.3639l-11.36-18.58v24.16c0 .2626-.052.5227-.152.7654-.101.2426-.248.4631-.434.6488-.185.1857-.406.333-.649.4335-.242.1006-.502.1523-.765.1523h-8.3v-44.97h10.27l12.2 20 12.2-20h10.27l.03 44.95z" fill="#47B16F"/>
    <g fill="#fff">
      <path d="m283 20.43v44.95h-7.71l-17.29-24.38v22.37c0 .2626-.052.5227-.152.7654-.101.2426-.248.4631-.434.6488s-.406.333-.649.4336c-.242.1005-.502.1522-.765.1522h-8.27v-44.94h7.7l16.43 23.12c.061.0875.149.1532.25.1874s.21.0352.312.0028.19-.0965.253-.1829c.062-.0864.096-.1906.095-.2973v-22.83h10.23z"/>
      <path d="m238.67 65.38v-44.95h-10.28v44.95h10.28z"/>
      <path d="m180.09 20.43h11.23l9.95 33.07 10-33.07h11.19l-14.19 43.57c-.131.401-.385.7504-.726.9982s-.752.3815-1.174.3818h-11.64l-14.64-44.95z"/>
      <path d="m173.18 58.31h-16.72l-1.78 5.69c-.128.4063-.382.7612-.726 1.0131-.343.2518-.758.3873-1.184.3869h-9.77l15.28-44.95h13.1l15.28 44.93h-11.2l-2.28-7.07zm-3.09-9.63-5.26-16.5-5.06 15.82c-.024.0751-.029.1548-.016.2325.013.0776.044.1512.091.2145.047.0634.108.1148.178.1501.07.0352.148.0534.227.0529l9.84.03z"/>
      <path d="M137.32 55.49V65.38H111V20.43H121.27V55.49H137.32Z"/>
    </g>
    <path d="m81 40c-.0061-7.8426-2.3176-15.51-6.6469-22.05-4.3294-6.5393-10.486-11.662-17.703-14.73-7.2175-3.0684-15.178-3.9475-22.891-2.5278-7.7131 1.4197-14.839 5.0754-20.491 10.512-5.6519 5.4372-9.5808 12.416-11.298 20.068-1.7172 7.6523-1.1471 15.641 1.6396 22.972 2.7867 7.3308 7.6669 13.681 14.034 18.26 6.3668 4.5793 13.939 7.1859 21.776 7.4957h41.58v-40z" fill="url(#j)"/>
    <path d="m81 40c-.0061-7.8426-2.3176-15.51-6.6469-22.05-4.3294-6.5393-10.486-11.662-17.703-14.73-7.2175-3.0684-15.178-3.9475-22.891-2.5278-7.7131 1.4197-14.839 5.0754-20.491 10.512-5.6519 5.4372-9.5808 12.416-11.298 20.068-1.7172 7.6523-1.1471 15.641 1.6396 22.972 2.7867 7.3308 7.6669 13.681 14.034 18.26 6.3668 4.5793 13.939 7.1859 21.776 7.4957h41.58v-40z" fill="url(#i)" opacity=".5"/>
    <path d="m81 40c-.0061-7.8426-2.3176-15.51-6.6469-22.05-4.3294-6.5393-10.486-11.662-17.703-14.73-7.2175-3.0684-15.178-3.9475-22.891-2.5278-7.7131 1.4197-14.839 5.0754-20.491 10.512-5.6519 5.4372-9.5808 12.416-11.298 20.068-1.7172 7.6523-1.1471 15.641 1.6396 22.972 2.7867 7.3308 7.6669 13.681 14.034 18.26 6.3668 4.5793 13.939 7.1859 21.776 7.4957h41.58v-40z" fill="url(#h)" opacity=".5"/>
    <path d="M51.97 20.28L33.1 38.97L74.52 80H81V65.38V49.04L51.97 20.28Z" fill="url(#g)"/>
    <path d="m52 20.28-18.9 18.72 21 20.81-.93-2.1c-.7809-1.8019-1.1793-3.7462-1.17-5.71v-31.72z" fill="url(#f)" style="mix-blend-mode:soft-light"/>
    <g opacity=".47" style="mix-blend-mode:soft-light">
      <path d="m81 40c-.0061-7.8426-2.3176-15.51-6.6469-22.05-4.3294-6.5393-10.486-11.662-17.703-14.73-7.2175-3.0684-15.178-3.9475-22.891-2.5278-7.7131 1.4197-14.839 5.0754-20.491 10.512-5.6519 5.4372-9.5808 12.416-11.298 20.068-1.7172 7.6523-1.1471 15.641 1.6396 22.972 2.7867 7.3308 7.6669 13.681 14.034 18.26 6.3668 4.5793 13.939 7.1859 21.776 7.4957h41.58v-40z" fill="#4BBA77"/>
    </g>
    <path d="M51.97 20.28L33.1 38.97L74.52 80H81V65.38V49.04L51.97 20.28Z" fill="url(#e)"/>
    <path d="m3.05 52.63c2.5613 7.7184 7.4144 14.473 13.912 19.363 6.4979 4.89 14.332 7.6832 22.458 8.0073h35.1l-49.52-49.09-21.95 21.72z" fill="url(#d)"/>
    <path d="m4.1 55.42c.37.89.77 1.77 1.21 2.62v.05c.44.87.91 1.71 1.41 2.54 2.5258 4.1615 5.7812 7.8336 9.61 10.84 3.6025 2.8168 7.6613 4.9951 12 6.44l-1.58-2.42c-1.1426-1.7482-1.7508-3.7916-1.75-5.88v-38.7l-21.95 21.72c.30666.9333.64 1.8433 1 2.73l.05.06z" fill="url(#c)"/>
    <path d="m52 20.28v17.56c-4e-4.5278.1036 1.0505.3062 1.5379.2025.4875.4995.93.8738 1.3021l27.82 27.59v-19.27l-29-28.72z" fill="url(#b)"/>
    <path d="m25 30.91v17.56c-.0017.5295.1017 1.0541.3042 1.5433.2026.4892.5003.9334.8758 1.3067l26.1 25.93c1.7869 1.7712 4.204 2.7604 6.72 2.75h15.52l-49.52-49.09z" fill="url(#a)"/>
  </g>
  <defs>
    <radialGradient id="j" cx="0" cy="0" r="1" gradientTransform="translate(41 40) scale(40)" gradientUnits="userSpaceOnUse">
      <stop stop-color="#F2F4F5" offset="0"/>
      <stop stop-color="#ECEFF0" offset=".2"/>
      <stop stop-color="#DBE1E4" offset=".47"/>
      <stop stop-color="#BECACF" offset=".78"/>
      <stop stop-color="#A6B7BD" offset="1"/>
    </radialGradient>
    <radialGradient id="i" cx="0" cy="0" r="1" gradientTransform="translate(80.83 49.17) scale(40.25)" gradientUnits="userSpaceOnUse">
      <stop stop-color="#56647C" offset="0"/>
      <stop stop-color="#56647C" stop-opacity="0" offset="1"/>
    </radialGradient>
    <radialGradient id="h" cx="0" cy="0" r="1" gradientTransform="translate(147.4 4118.4) scale(3220 3218.7)" gradientUnits="userSpaceOnUse">
      <stop stop-color="#56647C" offset="0"/>
      <stop stop-color="#56647C" stop-opacity="0" offset="1"/>
    </radialGradient>
    <linearGradient id="g" x1="57.05" x2="57.05" y1="80" y2="20.28" gradientUnits="userSpaceOnUse">
      <stop stop-color="#fff" offset=".16"/>
      <stop stop-color="#8BA9B3" offset="1"/>
    </linearGradient>
    <linearGradient id="f" x1="33.1" x2="54.1" y1="40.03" y2="40.03" gradientUnits="userSpaceOnUse">
      <stop stop-color="#010101" stop-opacity="0" offset="0"/>
      <stop stop-color="#010101" offset="1"/>
    </linearGradient>
    <linearGradient id="e" x1="57.05" x2="57.05" y1="80" y2="20.28" gradientUnits="userSpaceOnUse">
      <stop stop-color="#fff" offset="0"/>
      <stop stop-color="#fff" stop-opacity="0" offset=".51"/>
    </linearGradient>
    <linearGradient id="d" x1="38.78" x2="38.78" y1="80" y2="30.91" gradientUnits="userSpaceOnUse">
      <stop stop-color="#4CBA74" offset=".01"/>
      <stop stop-color="#1A884F" offset="1"/>
    </linearGradient>
    <linearGradient id="c" x1="3.05" x2="28.31" y1="54.42" y2="54.42" gradientUnits="userSpaceOnUse">
      <stop stop-color="#1A884F" offset="0"/>
      <stop stop-color="#22A660" offset="1"/>
    </linearGradient>
    <linearGradient id="b" x1="51.97" x2="81" y1="44.27" y2="44.27" gradientUnits="userSpaceOnUse">
      <stop stop-color="#fff" offset="0"/>
      <stop stop-color="#fff" stop-opacity="0" offset="1"/>
    </linearGradient>
    <linearGradient id="a" x1="1212" x2="3665.7" y1="2753.4" y2="2753.4" gradientUnits="userSpaceOnUse">
      <stop stop-color="#fff" offset="0"/>
      <stop stop-color="#fff" stop-opacity="0" offset="1"/>
    </linearGradient>
    <clipPath id="k">
      <rect width="394" height="80" fill="#fff"/>
    </clipPath>
  </defs>
</svg>
