<svg xmlns="http://www.w3.org/2000/svg" fill="none" viewBox="0 0 394 80"><g clip-path="url(#a)"><path fill="#47b16f" d="m383.93 57.61 4.49 4.75-5.94 5.27a2 2 0 0 1-2.77-.12l-3.48-3.68a23.24 23.24 0 1 1 7.7-6.22m-15.09-1.67-6.48-6.87 5.95-5.28a2 2 0 0 1 2.75.13l5.87 6.24a14.7 14.7 0 0 0 1.86-7.26c0-8-5.77-13.35-13.09-13.35s-13.1 5.33-13.1 13.35 5.78 13.36 13.1 13.36a17 17 0 0 0 3.14-.32m-32.29 9.44h-10.27V39.24L315 57.82a1 1 0 0 1-.88.49 1 1 0 0 1-.88-.49l-11.36-18.58V63.4a2 2 0 0 1-2 2h-8.3V20.43h10.27l12.2 20 12.2-20h10.27z"/><path fill="#fff" d="M283 20.43v44.95h-7.71L258 41v22.37a2 2 0 0 1-2 2h-8.27V20.43h7.7l16.43 23.12a.5.5 0 0 0 .91-.29V20.43zm-44.33 44.95V20.43h-10.28v44.95zm-58.58-44.95h11.23l9.95 33.07 10-33.07h11.19L208.27 64a2 2 0 0 1-1.9 1.38h-11.64zm-6.91 37.88h-16.72L154.68 64a2 2 0 0 1-1.91 1.4H143l15.28-44.95h13.1l15.28 44.93h-11.2zm-3.09-9.63-5.26-16.5L159.77 48a.5.5 0 0 0 .08.45.5.5 0 0 0 .4.2zm-32.77 6.81v9.89H111V20.43h10.27v35.06z"/><path fill="url(#b)" d="M81 40a40 40 0 1 0-41.58 40H81z"/><path fill="url(#c)" d="M81 40a40 40 0 1 0-41.58 40H81z" opacity=".5"/><path fill="url(#d)" d="M81 40a40 40 0 1 0-41.58 40H81z" opacity=".5"/><path fill="url(#e)" d="M51.97 20.28 33.1 38.97 74.52 80H81V49.04z"/><path fill="url(#f)" d="M52 20.28 33.1 39l21 20.81-.93-2.1A14 14 0 0 1 52 52z" style="mix-blend-mode:soft-light"/><path fill="#4bba77" d="M81 40a40 40 0 1 0-41.58 40H81z" opacity=".47" style="mix-blend-mode:soft-light"/><path fill="url(#g)" d="M51.97 20.28 33.1 38.97 74.52 80H81V49.04z"/><path fill="url(#h)" d="M3.05 52.63A40 40 0 0 0 39.42 80h35.1L25 30.91z"/><path fill="url(#i)" d="M4.1 55.42q.55 1.34 1.21 2.62v.05q.66 1.3 1.41 2.54a40 40 0 0 0 21.61 17.28l-1.58-2.42A10.7 10.7 0 0 1 25 69.61v-38.7L3.05 52.63q.45 1.4 1 2.73z"/><path fill="url(#j)" d="M52 20.28v17.56a4 4 0 0 0 1.18 2.84L81 68.27V49z"/><path fill="url(#k)" d="M25 30.91v17.56a4 4 0 0 0 1.18 2.85l26.1 25.93A9.5 9.5 0 0 0 59 80h15.52z"/></g><defs><linearGradient id="e" x1="57.05" x2="57.05" y1="80" y2="20.28" gradientUnits="userSpaceOnUse"><stop offset=".16" stop-color="#fff"/><stop offset="1" stop-color="#8ba9b3"/></linearGradient><linearGradient id="f" x1="33.1" x2="54.1" y1="40.03" y2="40.03" gradientUnits="userSpaceOnUse"><stop offset="0" stop-color="#010101" stop-opacity="0"/><stop offset="1" stop-color="#010101"/></linearGradient><linearGradient id="g" x1="57.05" x2="57.05" y1="80" y2="20.28" gradientUnits="userSpaceOnUse"><stop offset="0" stop-color="#fff"/><stop offset=".51" stop-color="#fff" stop-opacity="0"/></linearGradient><linearGradient id="h" x1="38.78" x2="38.78" y1="80" y2="30.91" gradientUnits="userSpaceOnUse"><stop offset=".01" stop-color="#4cba74"/><stop offset="1" stop-color="#1a884f"/></linearGradient><linearGradient id="i" x1="3.05" x2="28.31" y1="54.42" y2="54.42" gradientUnits="userSpaceOnUse"><stop offset="0" stop-color="#1a884f"/><stop offset="1" stop-color="#22a660"/></linearGradient><linearGradient id="j" x1="51.97" x2="81" y1="44.27" y2="44.27" gradientUnits="userSpaceOnUse"><stop offset="0" stop-color="#fff"/><stop offset="1" stop-color="#fff" stop-opacity="0"/></linearGradient><linearGradient id="k" x1="1212" x2="3665.7" y1="2753.4" y2="2753.4" gradientUnits="userSpaceOnUse"><stop offset="0" stop-color="#fff"/><stop offset="1" stop-color="#fff" stop-opacity="0"/></linearGradient><radialGradient id="b" cx="0" cy="0" r="1" gradientTransform="matrix(40 0 0 40 41 40)" gradientUnits="userSpaceOnUse"><stop offset="0" stop-color="#f2f4f5"/><stop offset=".2" stop-color="#eceff0"/><stop offset=".47" stop-color="#dbe1e4"/><stop offset=".78" stop-color="#becacf"/><stop offset="1" stop-color="#a6b7bd"/></radialGradient><radialGradient id="c" cx="0" cy="0" r="1" gradientTransform="translate(80.83 49.17)scale(40.25)" gradientUnits="userSpaceOnUse"><stop offset="0" stop-color="#56647c"/><stop offset="1" stop-color="#56647c" stop-opacity="0"/></radialGradient><radialGradient id="d" cx="0" cy="0" r="1" gradientTransform="matrix(3220 0 0 3218.7 147.4 4118.4)" gradientUnits="userSpaceOnUse"><stop offset="0" stop-color="#56647c"/><stop offset="1" stop-color="#56647c" stop-opacity="0"/></radialGradient><clipPath id="a"><path fill="#fff" d="M0 0h394v80H0z"/></clipPath></defs></svg>