<svg xmlns="http://www.w3.org/2000/svg" width="120" height="24" fill="none" viewBox="0 0 120 24">
  <g clip-path="url(#a)">
    <path fill="#f7f5f2" d="m118.43 17.283 1.371 1.425-1.813 1.581a.62.62 0 0 1-.847-.036l-1.062-1.104a7.4 7.4 0 0 1-3.214.732 7.17 7.17 0 0 1-4.414-1.545 6.96 6.96 0 0 1-2.472-3.913 6.87 6.87 0 0 1 .55-4.573 7.04 7.04 0 0 1 3.332-3.239 7.2 7.2 0 0 1 4.659-.491 7.1 7.1 0 0 1 3.955 2.47 6.9 6.9 0 0 1 1.526 4.354 6.9 6.9 0 0 1-1.571 4.339m-4.607-.501-1.978-2.061 1.816-1.584a.62.62 0 0 1 .84.039l1.792 1.872a4.34 4.34 0 0 0 .568-2.178c0-2.4-1.762-4.005-3.996-4.005s-4 1.599-4 4.005 1.765 4.008 4 4.008q.483-.005.958-.096m-9.858 2.832h-3.135v-7.842l-3.443 5.574a.3.3 0 0 1-.27.147.31.31 0 0 1-.268-.147l-3.468-5.574v7.248c0 .158-.065.31-.179.422a.63.63 0 0 1-.431.178h-2.534V6.129h3.135l3.725 6 3.724-6h3.135zM87.312 6.129v13.485H84.96L79.68 12.3v6.711a.6.6 0 0 1-.103.333.62.62 0 0 1-.508.267h-2.524V6.129h2.35l5.017 6.936a.156.156 0 0 0 .25.002.15.15 0 0 0 .027-.089V6.129zM73.778 19.614V6.129H70.64v13.485zM55.896 6.129h3.429l3.037 9.921 3.054-9.921h3.415L64.498 19.2a.6.6 0 0 1-.222.298.63.63 0 0 1-.358.116h-3.554zM52.87 17.493h-5.104l-.543 1.707a.6.6 0 0 1-.222.303.63.63 0 0 1-.361.117h-2.983l4.665-13.485h4l4.664 13.479h-3.42zm-.943-2.889-1.605-4.95-1.546 4.746a.15.15 0 0 0 .078.179q.032.015.07.016zm-10.004 2.043v2.967h-8.035V6.129h3.135v10.518z"/>
    <mask id="b" width="25" height="24" x="0" y="0" maskUnits="userSpaceOnUse" style="mask-type:luminance">
      <path fill="#fff" d="M0 0h24.423v24H0z"/>
    </mask>
    <g mask="url(#b)">
      <path fill="#f7f5f2" fill-rule="evenodd" d="m21.978 12.348-.964-.986-5.399-5.257a.155.155 0 0 0-.215 0l-5.36 5.218a.15.15 0 0 0-.036.157l.184.518-.611-.623-2.153-2.097a.15.15 0 0 0-.108-.043.16.16 0 0 0-.108.043l-4.25 4.14a.062.062 0 0 1-.104-.033A9 9 0 0 1 2.748 12c0-5.128 4.245-9.3 9.464-9.3 4.948 0 9.02 3.752 9.428 8.513.013.153.046.436.098.58.096.27.244.559.24.555m-9.287 9.367-.824-.378c-.168-.056-.646-.09-.822-.113a9.48 9.48 0 0 1-7.152-4.795.12.12 0 0 1 .022-.143l3.3-3.213a.06.06 0 0 1 .066-.012.06.06 0 0 1 .027.022q.01.015.009.032v3.343q.001.062.044.106l4.472 4.354zM24.423 12c0-6.909-5.941-12.454-13.078-11.97C5.323.436.445 5.23.03 11.148-.462 18.16 5.18 24 12.212 24h9.96a.16.16 0 0 0 .142-.094.15.15 0 0 0-.034-.164l-8.792-8.562h-.002l-1.665-1.62a.12.12 0 0 1 0-.169l3.584-3.49a.06.06 0 0 1 .066-.013.06.06 0 0 1 .037.054v3.368q0 .037.027.063l8.627 8.4a.16.16 0 0 0 .166.032.15.15 0 0 0 .095-.138V12.25l-.007.006q.005-.128.007-.256" clip-rule="evenodd"/>
    </g>
  </g>
  <defs>
    <clipPath id="a">
      <path fill="#fff" d="M0 0h120v24H0z"/>
    </clipPath>
  </defs>
</svg>
