<svg xmlns="http://www.w3.org/2000/svg" width="120" height="24" fill="none" viewBox="0 0 120 24"><g clip-path="url(#a)"><path fill="#141414" d="m118.43 17.28 1.37 1.43-1.81 1.58a.6.6 0 0 1-.85-.04l-1.06-1.1q-1.52.72-3.22.73a7.2 7.2 0 0 1-4.4-1.54 6.9 6.9 0 0 1-1.92-8.49 7 7 0 0 1 3.32-3.24 7.2 7.2 0 0 1 8.61 1.98 6.9 6.9 0 0 1-.04 8.7m-4.6-.5-1.98-2.06 1.81-1.58a.6.6 0 0 1 .84.04l1.8 1.87q.56-1.02.56-2.18c0-2.4-1.76-4-4-4-2.23 0-4 1.6-4 4s1.77 4 4 4q.5 0 .96-.09m-9.86 2.83h-3.14v-7.84l-3.44 5.58a.3.3 0 0 1-.27.14.3.3 0 0 1-.27-.14l-3.47-5.58v7.25a.6.6 0 0 1-.18.42.6.6 0 0 1-.43.18h-2.53V6.12h3.13l3.73 6 3.72-6h3.14zM87.31 6.13V19.6h-2.35l-5.28-7.31V19a.6.6 0 0 1-.1.33.6.6 0 0 1-.51.27h-2.53V6.13h2.36l5.01 6.94.08.05a.2.2 0 0 0 .17-.05l.03-.1V6.14zM73.78 19.6V6.13h-3.14V19.6zM55.9 6.13h3.42l3.04 9.92 3.05-9.92h3.42L64.5 19.2a.6.6 0 0 1-.22.3.6.6 0 0 1-.36.11h-3.56zm-3.03 11.36h-5.1l-.55 1.71a.6.6 0 0 1-.22.3.6.6 0 0 1-.36.12h-2.98l4.66-13.48h4l4.66 13.47h-3.41zm-.94-2.89-1.6-4.95-1.55 4.75a.15.15 0 0 0 .07.18l.07.02zm-10 2.05v2.96h-8.04V6.13h3.13v10.52z"/><mask id="b" width="25" height="24" x="0" y="0" maskUnits="userSpaceOnUse" style="mask-type:luminance"><path fill="#fff" d="M0 0h24.42v24H0z"/></mask><g mask="url(#b)"><path fill="#141414" fill-rule="evenodd" d="m21.98 12.35-.97-.99-5.4-5.25a.15.15 0 0 0-.21 0l-5.36 5.21a.2.2 0 0 0-.04.16l.19.52-.61-.63-2.16-2.1-.1-.04-.11.05-4.25 4.14a.06.06 0 0 1-.1-.04q-.12-.68-.11-1.38a9.4 9.4 0 0 1 9.46-9.3 9.4 9.4 0 0 1 9.43 8.51c.01.16.05.44.1.58.1.27.24.56.24.56m-9.29 9.36-.82-.37c-.17-.06-.65-.1-.82-.12a9.5 9.5 0 0 1-7.17-4.87q0-.04.04-.06l3.3-3.22h.06l.03.01v3.38q0 .06.05.1l4.47 4.36zM24.42 12c0-6.9-5.94-12.45-13.07-11.97C5.32.43.45 5.23.03 11.15A12.1 12.1 0 0 0 12.21 24h9.96a.2.2 0 0 0 .14-.1.2.2 0 0 0-.03-.16l-8.8-8.56-1.66-1.62a.12.12 0 0 1 0-.17l3.59-3.49.06-.01.04.05v3.37q0 .04.02.06l8.63 8.4a.2.2 0 0 0 .17.03.2.2 0 0 0 .1-.13v-9.42h-.01z" clip-rule="evenodd"/></g></g><defs><clipPath id="a"><path fill="#fff" d="M0 0h120v24H0z"/></clipPath></defs></svg>