<svg xmlns="http://www.w3.org/2000/svg" xmlns:xlink="http://www.w3.org/1999/xlink" viewBox="0 0 154 56"><defs><path id="a" d="M23 55a23 23 0 1 1 0-46 23 23 0 0 1 0 46m-1-18.2a5.4 5.4 0 0 0-.83-2.89 6 6 0 0 0-2.24-2.12 5 5 0 0 0 1.39-1.9q.24-.55.38-1.12.13-.58.13-1.15 0-1.16-.53-2.18c-.53-1.02-.85-1.27-1.47-1.78q-.94-.78-2.18-1.22A6 6 0 0 0 14 22q-1.4 0-2.64.44c-1.24.44-1.55.7-2.17 1.22q-.92.75-1.46 1.78c-.54 1.03-.53 1.4-.53 2.18a5 5 0 0 0 .5 2.26q.25.54.6 1.03.36.48.8.86A6 6 0 0 0 6 36.8q0 1.34.63 2.48.63 1.12 1.72 1.96 1.08.82 2.54 1.29 1.45.45 3.11.46c1.66.01 2.14-.15 3.1-.46s1.83-.74 2.55-1.3a6 6 0 0 0 1.72-1.95q.63-1.14.63-2.48m-5-8.78q0 .42-.2.78c-.2.36-.3.45-.53.62q-.35.27-.8.42a3 3 0 0 1-1.94 0q-.45-.15-.8-.42-.33-.26-.53-.62c-.2-.36-.2-.5-.2-.78s.07-.54.2-.79q.19-.36.53-.64t.8-.43a3 3 0 0 1 2.74.43q.33.27.53.64.2.36.2.79m0 9.05q0 .64-.27 1.18-.29.53-.75.92-.48.39-1.12.6a4.2 4.2 0 0 1-3.84-.6 3 3 0 0 1-.75-.92Q10 37.7 10 37.07c0-.64.1-.83.27-1.2q.28-.56.75-.97a3.6 3.6 0 0 1 2.47-.9 4 4 0 0 1 2.49.9q.46.41.75.97.27.55.27 1.2M40 39v-4h-2V25h-4v10h-5.5l1.74-12h-4L24 39h10v4h4v-4z"/></defs><g fill="#7a7c7c" fill-rule="evenodd"><use xlink:href="#a"/><path d="M90.73 37.68q-1.51.25-3.16.32-.95 4.2-3.75 6.72c-2.8 2.52-3.98 2.53-6.35 2.53q-3 0-5.12-1.45a9 9 0 0 1-2.46-2.47 11 11 0 0 1-3.64 2.34c-2.1.76-4.3 1.58-6.33 1.58q-4.89 0-7.62-2.78t-2.73-7.32q0-4.05 1.6-7.1c1.6-3.05 2.45-3.6 4.15-4.7s3.49-1.65 5.35-1.65q2.76 0 4.28 1.62a6 6 0 0 1 1.52 4.18q0 2.1-.92 3.55-.93 1.45-2.43 1.45a2.4 2.4 0 0 1-1.52-.45 1.5 1.5 0 0 1-.58-1.25q0-.35.1-.8l.15-.65q.25-.75.25-1.4c0-.65-.1-.77-.32-1q-.33-.35-.93-.35-1.14 0-2.15 1.02-1 1.03-1.6 2.78c-.6 1.75-.6 2.45-.6 3.85q0 5.8 5.05 5.8 2.06 0 4.43-1.38 1.39-.8 2.75-2.07-.12-.9-.13-1.85 0-3.8 1.45-6.78a11.4 11.4 0 0 1 4-4.65 10 10 0 0 1 5.65-1.67q3.8 0 6.13 2.62a11.2 11.2 0 0 1 2.72 6.48q1.82-.12 4.18-.65l.22-.48a15 15 0 0 1 4.68-5.6q2.97-2.17 6.67-2.57.96-9.7 3.63-16.58T114.37 0q2.16 0 3.58 1.95c1.42 1.95 1.42 3.27 1.42 5.9q0 5.6-2.75 13.1a97 97 0 0 1-7.35 15.4q.2 2.9.88 4.15c.68 1.25 1.02 1.25 1.72 1.25q1.35 0 2.75-1.2.78-.66 1.85-1.83a15 15 0 0 1-.15-2.12q0-3.45 1.45-6.43t4.03-4.72c2.58-1.75 3.66-1.75 5.82-1.75q2.91 0 4.65 1.72a6.3 6.3 0 0 1 1.75 4.68q0 3.45-2.47 5.92c-2.47 2.47-4.44 2.96-8.38 3.93q1.26 2.3 4.75 2.3 2.25 0 5.13-1.58 1.8-.98 3.28-2.33a54 54 0 0 0 2.94-4.09q.9-1.45 1.83-3.45c.93-2 1.42-3.15 2.42-5.45q.95-2.2 3.95-2.2 1.41 0 1.95.25.55.25.55.8 0 .3-.2.95c-.2.65-.31.87-.55 1.3q-.9 1.8-.9 3.05 0 .75.53 1.65c.53.9.9 1.35 1.62 2.25q1.6 2.1 2.43 3.57.82 1.48.82 3.23 0 2.1-.97 3.97a6.3 6.3 0 0 1-2.73 3.03 7 7 0 0 1-4 1.15q-2.6 0-3.97-1.2c-1.37-1.2-1.38-1.7-1.38-2.7q0-1.3.95-2.25c.95-.95 1.57-.95 2.8-.95q.66 0 1.53.12c.87.12 1.02.15 1.32.18q-.04-1.3-.57-2.45c-.53-1.15-.8-1.5-1.33-2.23s-1.03-1.34-1.5-1.87a33 33 0 0 1-3.64 5.6q-.17.33-.4.6a14 14 0 0 1-1.52 1.56l-.84.84q-.65.66-1.36.83-.72.47-1.51.92a14.5 14.5 0 0 1-7.23 1.9q-5.24 0-8.15-2.85a9 9 0 0 1-.96-1.11q-1.23 1.2-2.59 2.18a8.3 8.3 0 0 1-4.85 1.78q-3.8 0-5.8-4.45-2.1 2.65-3.67 3.55c-1.57.9-2.28.9-3.68.9q-3.04 0-5.02-2.28t-1.98-5.92q0-.7.06-1.37m-12.86 4.27q1.6 0 2.78-1.3a7 7 0 0 0 1.58-3.75 7 7 0 0 1-2.38-2.75 8 8 0 0 1-.67-5.2h-.25q-2.01 0-3.33 1.92c-1.32 1.92-1.32 3.1-1.32 5.43q0 2.74 1.07 4.2c1.07 1.46 1.56 1.45 2.53 1.45m21.55.25a3 3 0 0 0 1.9-.78q.96-.77 2.4-2.87-.5-2.7-.5-6.05 0-1.2.1-3.9-2.74.86-4.57 3.67c-1.83 2.81-1.82 3.98-1.82 6.28q0 3.65 2.5 3.65m14.4-37.3q-.94 0-1.9 3.37-.95 3.38-1.62 8.83c-.67 5.45-.77 7.43-.97 11.4q5.6-12.2 5.6-19.6 0-1.9-.33-2.95c-.33-1.05-.47-1.05-.77-1.05m12.96 23.7q-1.86 0-3.13 2.15c-1.27 2.15-1.27 3.17-1.27 5.2v.1q2.94-.7 4.65-2.1c1.7-1.4 1.7-2.02 1.7-3.25q0-.94-.53-1.53a1.8 1.8 0 0 0-1.42-.57"/></g></svg>