<svg version="1.1" viewBox="0 0 154 56" xmlns="http://www.w3.org/2000/svg" xmlns:xlink="http://www.w3.org/1999/xlink">
  <defs>
    <path id="a" d="m23 55c-12.703 0-23-10.297-23-23s10.297-23 23-23 23 10.297 23 23-10.297 23-23 23zm-1-18.192c0-.51715-.0713-1.0204-.2139-1.5099-.1426-.48945-.347-.95119-.61319-1.3852-.26619-.43404-.58942-.83113-.9697-1.1913-.38028-.36016-.80333-.66952-1.2692-.9281.29471-.25858.55853-.54947.79144-.87269s.43018-.66721.5918-1.032c.16162-.36478.28758-.73878.3779-1.122.090315-.38325.13547-.76418.13547-1.1428 0-.77573-.17825-1.503-.53476-2.1817s-.8461-1.2744-1.4688-1.7869c-.6227-.51254-1.3476-.91656-2.1747-1.2121s-1.7112-.44327-2.6524-.44327c-.93167 0-1.811.14776-2.6381.44327s-1.5496.69954-2.1676 1.2121c-.61795.51254-1.1052 1.1082-1.4617 1.7869s-.53476 1.406-.53476 2.1817c0 .37863.04278.75956.12834 1.1428.085562.38325.21153.75495.3779 1.1151s.36601.70185.59893 1.0251c.23292.32322.49673.6095.79144.85884-.47534.25858-.90315.57025-1.2834.93503-.38028.36478-.70588.76418-.97683 1.1982s-.47772.89808-.62032 1.3922-.2139.99967-.2139 1.5168c0 .89578.20915 1.7223.62745 2.4796.4183.75726.99108 1.4106 1.7184 1.9601.72728.54948 1.5758.97889 2.5455 1.2883.9697.30937 2.0059.46405 3.1087.46405s2.139-.15468 3.1087-.46405 1.8182-.73878 2.5455-1.2883c.72728-.54948 1.3001-1.2028 1.7184-1.9601.4183-.75726.62745-1.5838.62745-2.4796zm-5-8.79c0 .28028-.065733.54054-.1972.78078s-.30958.44845-.53435.62462c-.22477.17618-.48982.31632-.79517.42042-.30534.1041-.62765.15616-.96692.15616-.34775 0-.6743-.052052-.97964-.15616-.30535-.1041-.5704-.24424-.79517-.42042-.22477-.17618-.40288-.38438-.53435-.62462s-.1972-.5005-.1972-.78078.065733-.54254.1972-.78679c.13147-.24425.30958-.45846.53435-.64264.22477-.18419.48982-.32833.79517-.43243.30534-.1041.63189-.15616.97964-.15616.33927 0 .66158.052052.96692.15616.30535.1041.5704.24825.79517.43243.22477.18419.40288.3984.53435.64264.13147.24425.1972.50651.1972.78679zm0 9.0489c0 .42857-.091046.82143-.27314 1.1786-.18209.35714-.43194.66518-.74955.92411-.31761.25893-.69026.46205-1.118.60938-.42771.14732-.88294.22098-1.3657.22098s-.93587-.07366-1.3593-.22098c-.42347-.14732-.79401-.35045-1.1116-.60938-.31761-.25893-.56745-.56696-.74955-.92411-.18209-.35714-.27314-.75-.27314-1.1786s.091046-.82812.27314-1.1987c.18209-.37054.43194-.6942.74955-.97098.31761-.27679.68814-.49553 1.1116-.65625s.87659-.24107 1.3593-.24107.93799.080356 1.3657.24107c.42771.16072.80036.37946 1.118.65625.31761.27679.56745.60044.74955.97098.18209.37054.27314.77009.27314 1.1987zm23 1.9302v-3.9888h-1.9948v-10h-4.0035v10h-5.51l1.7437-12.008h-4.0035l-2.2319 15.997h10.002v4.0028h4.0035v-4.0028h1.9948z"/>
  </defs>
  <g fill="none" fill-rule="evenodd">
    <mask fill="white">
      <use xlink:href="#a"/>
    </mask>
    <use fill="#7A7C7C" xlink:href="#a"/>
    <path d="m90.726 37.677c-1.009.16967-2.0595.27725-3.1513.32274-.63334 2.8-1.8833 5.0417-3.75 6.725s-3.9833 2.525-6.35 2.525c-2 0-3.7083-.48333-5.125-1.45-.98396-.67141-1.8031-1.4956-2.4574-2.4725-1.1244 1.034-2.3592 1.8843-3.6426 2.3475-2.0938.75566-4.2917 1.575-6.325 1.575-3.2667 0-5.8083-.92499-7.625-2.775-1.8167-1.85-2.725-4.2917-2.725-7.325 0-2.7.53333-5.0667 1.6-7.1s2.45-3.6 4.15-4.7 3.4833-1.65 5.35-1.65c1.8333 0 3.2583.54166 4.275 1.625 1.0167 1.0833 1.525 2.475 1.525 4.175 0 1.4-.30833 2.5833-.925 3.55-.61667.96667-1.425 1.45-2.425 1.45-.63334 0-1.1417-.15-1.525-.45-.38334-.3-.575-.71666-.575-1.25 0-.23333.033333-.5.1-.8s.11667-.51667.15-.65c.16667-.5.25-.96666.25-1.4s-.10833-.76667-.325-1c-.21667-.23333-.525-.35-.925-.35-.76667 0-1.4833.34166-2.15 1.025-.66667.68334-1.2 1.6083-1.6 2.775s-.6 2.45-.6 3.85c0 3.8667 1.6833 5.8 5.05 5.8 1.3667 0 2.8417-.45833 4.425-1.375.92547-.5358 1.8424-1.2282 2.7508-2.0771-.083848-.6007-.12577-1.2167-.12577-1.8479 0-2.5333.48333-4.7917 1.45-6.775.96667-1.9833 2.3-3.5333 4-4.65 1.7-1.1167 3.5833-1.675 5.65-1.675 2.5333 0 4.575.87499 6.125 2.625 1.55 1.75 2.4583 3.9083 2.725 6.475 1.2119-.077353 2.6032-.29432 4.1741-.6509.072623-.15894.14793-.31698.22592-.4741 1.1333-2.2833 2.6917-4.15 4.675-5.6 1.9833-1.45 4.2083-2.3083 6.675-2.575.63334-6.4667 1.8417-11.992 3.625-16.575 1.7833-4.5834 4.125-6.875 7.025-6.875 1.4333 0 2.625.64999 3.575 1.95s1.425 3.2667 1.425 5.9c0 3.7334-.91666 8.1-2.75 13.1-1.8333 5-4.2833 10.133-7.35 15.4.13333 1.9333.425 3.3167.875 4.15s1.025 1.25 1.725 1.25c.9 0 1.8167-.4 2.75-1.2.51816-.44414 1.1339-1.0527 1.8473-1.8256-.09819-.67259-.14728-1.3807-.14728-2.1244 0-2.3.48333-4.4417 1.45-6.425.96667-1.9833 2.3083-3.5583 4.025-4.725s3.6583-1.75 5.825-1.75c1.9333 0 3.4833.57499 4.65 1.725 1.1667 1.15 1.75 2.7083 1.75 4.675 0 2.3-.82499 4.275-2.475 5.925s-4.4416 2.9583-8.375 3.925c.83334 1.5333 2.4167 2.3 4.75 2.3 1.5 0 3.2083-.52499 5.125-1.575 1.1929-.65348 2.2857-1.4328 3.2784-2.3381 1.2476-1.5982 2.2298-2.9605 2.9466-4.0869.6-.96667 1.2083-2.1167 1.825-3.45s1.425-3.15 2.425-5.45c.63334-1.4667 1.95-2.2 3.95-2.2.93334 0 1.5833.083332 1.95.25.36667.16667.55.43333.55.8 0 .2-.066666.51666-.2.95s-.31666.86666-.55 1.3c-.6 1.2-.9 2.2167-.9 3.05 0 .5.175 1.05.525 1.65s.89166 1.35 1.625 2.25c1.0667 1.4 1.875 2.5917 2.425 3.575.55.98334.825 2.0583.825 3.225 0 1.4-.325 2.725-.975 3.975s-1.5583 2.2583-2.725 3.025c-1.1667.76667-2.5 1.15-4 1.15-1.7333 0-3.0583-.4-3.975-1.2s-1.375-1.7-1.375-2.7c0-.86667.31666-1.6167.95-2.25s1.5667-.95 2.8-.95c.43334 0 .94166.041666 1.525.125s1.025.14167 1.325.175c-.033333-.86667-.225-1.6833-.575-2.45s-.79166-1.5083-1.325-2.225-1.0333-1.3417-1.5-1.875c-1.0333 1.9667-2.0583 3.6-3.075 4.9-.18527.2369-.37359.47159-.56494.70407-.11751.21681-.25419.41546-.41006.59593-.43944.53446-.94342 1.0541-1.5119 1.5589-.2742.2841-.55356.56445-.83807.84106-.43834.43834-.89447.71656-1.3684.83467-.47395.3116-.97615.61671-1.5066.91533-2.25 1.2667-4.6583 1.9-7.225 1.9-3.5 0-6.2167-.94999-8.15-2.85-.3529-.34681-.67359-.71695-.96207-1.1104-.82185.8024-1.6845 1.5309-2.5879 2.1854-1.6333 1.1833-3.25 1.775-4.85 1.775-2.5333 0-4.4667-1.4833-5.8-4.45-1.4 1.7667-2.625 2.95-3.675 3.55s-2.275.9-3.675.9c-2.0333 0-3.7083-.75833-5.025-2.275-1.3167-1.5167-1.975-3.4917-1.975-5.925 0-.46337.01711-.92095.051328-1.3727zm-12.851 4.2727c1.0667 0 1.9917-.43333 2.775-1.3.78334-.86667 1.3083-2.1167 1.575-3.75-1.0333-.7-1.825-1.6167-2.375-2.75-.55-1.1333-.825-2.3333-.825-3.6 0-.53334.05-1.0667.15-1.6h-.25c-1.3333 0-2.4417.64166-3.325 1.925s-1.325 3.0917-1.325 5.425c0 1.8333.35833 3.2333 1.075 4.2s1.5583 1.45 2.525 1.45zm21.55.25c.63334 0 1.2667-.25833 1.9-.775.63334-.51667 1.4333-1.475 2.4-2.875-.33334-1.8-.5-3.8167-.5-6.05 0-.8.033333-2.1.1-3.9-1.8333.56667-3.3583 1.7917-4.575 3.675s-1.825 3.975-1.825 6.275c0 2.4333.83332 3.65 2.5 3.65zm14.4-37.3c-.63334 0-1.2667 1.125-1.9 3.375-.63334 2.25-1.175 5.1916-1.625 8.825s-.775 7.4333-.975 11.4c3.7334-8.1334 5.6-14.667 5.6-19.6 0-1.2667-.10833-2.25-.325-2.95s-.475-1.05-.775-1.05zm12.95 23.7c-1.2333 0-2.275.71666-3.125 2.15s-1.275 3.1667-1.275 5.2v.1c1.9667-.46667 3.5167-1.1667 4.65-2.1s1.7-2.0167 1.7-3.25c0-.63334-.175-1.1417-.525-1.525-.35-.38334-.825-.575-1.425-.575z" fill="#7A7C7C"/>
  </g>
</svg>
