<svg width="24" height="24" viewBox="0 0 24 24" fill="none" xmlns="http://www.w3.org/2000/svg">
<path d="M10.29 3.86001L1.82002 18C1.64539 18.3024 1.55299 18.6453 1.55201 18.9945C1.55103 19.3437 1.64151 19.6871 1.81445 19.9905C1.98738 20.2939 2.23675 20.5468 2.53773 20.7239C2.83871 20.901 3.18082 20.9962 3.53002 21H20.47C20.8192 20.9962 21.1613 20.901 21.4623 20.7239C21.7633 20.5468 22.0127 20.2939 22.1856 19.9905C22.3585 19.6871 22.449 19.3437 22.448 18.9945C22.4471 18.6453 22.3547 18.3024 22.18 18L13.71 3.86001C13.5318 3.56611 13.2807 3.32313 12.9812 3.15449C12.6817 2.98585 12.3438 2.89726 12 2.89726C11.6563 2.89726 11.3184 2.98585 11.0188 3.15449C10.7193 3.32313 10.4683 3.56611 10.29 3.86001Z" stroke="#FAFAFA" stroke-width="1.5" stroke-linecap="round" stroke-linejoin="round"/>
</svg>
