<svg xmlns="http://www.w3.org/2000/svg" width="24" height="24" fill="none" viewBox="0 0 24 24"><path stroke="#141414" stroke-width="1.5" d="M2.5 2.75h1c.69 0 1.25.56 1.25 1.25v16c0 .69-.56 1.25-1.25 1.25h-1c-.69 0-1.25-.56-1.25-1.25V4c0-.69.56-1.25 1.25-1.25Zm6 0h1c.69 0 1.25.56 1.25 1.25v16c0 .69-.56 1.25-1.25 1.25h-1c-.69 0-1.25-.56-1.25-1.25V4c0-.69.56-1.25 1.25-1.25Zm6 0h1c.69 0 1.25.56 1.25 1.25v16c0 .69-.56 1.25-1.25 1.25h-1c-.69 0-1.25-.56-1.25-1.25V4c0-.69.56-1.25 1.25-1.25Zm6 0h1c.69 0 1.25.56 1.25 1.25v16c0 .69-.56 1.25-1.25 1.25h-1c-.69 0-1.25-.56-1.25-1.25V4c0-.69.56-1.25 1.25-1.25Z"/></svg>